<mxfile host="app.diagrams.net" modified="2020-12-30T19:21:26.880Z" agent="5.0 (X11; Linux x86_64) AppleWebKit/537.36 (KHTML, like Gecko) Chrome/87.0.4280.88 Safari/537.36" etag="kRwOB9i9Bi9v_XuVl4m-" version="14.0.1" type="github">
  <diagram id="HO2nKOo18r546nv0dzhB" name="Page-1">
    <mxGraphModel dx="2881" dy="1144" grid="1" gridSize="10" guides="1" tooltips="1" connect="1" arrows="1" fold="1" page="1" pageScale="1" pageWidth="850" pageHeight="1100" math="0" shadow="0">
      <root>
        <mxCell id="0" />
        <mxCell id="1" parent="0" />
        <mxCell id="ikngprKoodgcfhLvlv2f-67" value="" style="rounded=1;whiteSpace=wrap;html=1;fillColor=#ffcccc;strokeColor=#36393d;" vertex="1" parent="1">
          <mxGeometry x="-770" y="20" width="710" height="1130" as="geometry" />
        </mxCell>
        <mxCell id="ikngprKoodgcfhLvlv2f-8" value="" style="group" vertex="1" connectable="0" parent="1">
          <mxGeometry x="-625" y="810" width="400" height="170" as="geometry" />
        </mxCell>
        <mxCell id="ikngprKoodgcfhLvlv2f-6" value="" style="rounded=1;whiteSpace=wrap;html=1;fillColor=#dae8fc;strokeColor=#6c8ebf;" vertex="1" parent="ikngprKoodgcfhLvlv2f-8">
          <mxGeometry width="400" height="170" as="geometry" />
        </mxCell>
        <mxCell id="ikngprKoodgcfhLvlv2f-2" value="" style="shape=image;verticalLabelPosition=bottom;labelBackgroundColor=#ffffff;verticalAlign=top;aspect=fixed;imageAspect=0;image=data:image/png,iVBORw0KGgoAAAANSUhEUgAAAW8AAACJCAMAAADUiEkNAAABHVBMVEX///91fYDPzspyen1Rfb5sdXjysxvcRy9itPZcsvb39/jw8fGAh4rLzc7V19iUmpzl5uekqave4OGrr7GOlJfv+P7ysADCxcbq9P5tuve1ubu8v8GEw/hVgcDe7v222fqfz/mQyPjbQSbR6PxGdrvdPSFPcaiq1PnI4/vOmyv30Y7DQi3iwIJbj8zaNhPlgHLZZVTF0ujQwrxzksH32NPxvrjzuTX76+ncpCX2znmKpdHDNBreUjzVkof88Nf64rHso5n0wVPPtYb/+erYcmPgXUndt2zKfnLvsqqUorustsbSsqvTopnTy7fZxqDaTyqru9rBTkHbxcvokYWXkYm2nW5ofqHNplezo4PTm3nWeTLYbjPaYTLUiTLjmHX8teHnAAAOe0lEQVR4nO2cCXsbRRKGNR7akXruQ9aJJMdOpLAQINnNhmMTQhbYG/a+9///jK2qvueQFUcmwfT3PMFya6Zn+u3qOnoGDwZeXl5eXl5eXl5eXl5eXl5eXl5eXl5eXl5eXl5eXl5eXl5eXl5eXm+vPn78brcef/ymb+026uPLd/p0+embvrnbJ96PG4B7Cz+2Pt3H+50P3vTt3Tat9uJ+5/K7N32Dt0yP9+IGTd/0Hd4q7QmW0sB9yDyi+LtXmbcPmcfUd8a8m8n3B1p7e4iSoq7rrJjkx7onDjpWX2+Zphr35eLE1aPPfiL1xz/1d5DWIQtJLKzT49xUHQbsSF29bdLB8vLxSVPfKOCffd53elSzMNAKWR0d46YO552nSVoe5Zot8TJJu1Zs9DqXtIJl0uL9SNC+c+fOvV91n56GIWEO4jgg8GF4DLs8jDefwNIixQvpfsCxlde6YlRUldMwiannwG0dpFkgL1lZc1Fl2WHDNsHy8tct3Ccnv/gMYZN+3nV6SoiDqow4j8p5zIKAFa820E4dxHuBM0yODCd8Qm1xeE0/lLOQWb/yWvQN44ktU05jNCpqh/9UOsZkIUsOuszJfR0rO3CfnHx0V+K+9+fOmwTcbK4vyxfsKLgP4c0znFwWZ1UFVq7mGVbZ9ewbhhJav8ZAO8iqAiwoNMArRlNbZzUt5jBWJn4o75dPLyXwy9908v7tPWXf937aHnKAF3W4lEfBfQBvjkTCiZhqnsCdEPAj8V4wMCP1KcxkawWfmXQjZYHsAzkVh/L+5Owv9wXwdrAkpb9UBn73o9bZGS636w3vCl3NOw5dz1WIdX8k3mBGc/lxAY5GIK4cWx/kOOOx+Hwg72dnp6f37xNxnQumEdhMVOqQqXjfefizxtklruLFtUZ3la7kXcBYJ06LcKbH4Z2DIWmw9UJ8TOGI2qkKwN5YJT8dxPvJ6enZXy8B+OWniq+6DNchU3uUzxslSGHm99i6ijdMtTZAR0fjHbfqrTgMm424yOhyh/F+DuZ9evo3tPAmbpBquqM9+BfO2Rxj5RVXyRdFVsxL5zZ5Oi9atShPF0WRcKosBy7vPKmKqgE/C3tm2ubN87Lsrnjt6pXnOQ7a4R2BJTWnLQGX3uwtUs79IN4vCffZ38HAVS5oXySSbb/TBv7QyQnRnQR7q+6yFoUni62bmQRM1qLW3C6okcVpGcaY8RrepaheWWx7j6h3pg3vtIbgxkJ1Xh7H2hlEUC3Ii0M6Dckd5Oyu/0ZbblQ0MMXZoClY4iwaHMj7E+J9ehYb83bwpc2c0A2ZCzCCel//C115hia01czUouoWuWqEIUGnNm/dR8is0aIr7Z5pxZvLqcaZIqvMLW8QMZlYQE4pD6rQpN0LhE5o4p0eDmaJRnEI72cC9+np0/s6F3Q7a+WED+2csII7tDKEOLCEUWTOROFJqaqiFVOlEMdUljJhe5FspPIlcHgvKMEP6HBrcud97kTxpmwxLuYV/iQ3YLtkcAPEm+Nl6CgoG2In/57DvbDQKiFhNdv1kLkeMTiE93PF++wfqpJ3J1A5lBOdEzpVfSFMUV/Z3kbJyERgyEnEowS/EulsQTxzzsuCKlMaD6aV4TznUUp9WLxL1UeOh7OJuXTYk+dL3rjORW6eor/g3bxxBALThCbU7ogqSXRjyvGwzikGL1MPXpH36enJft5fdaaETftu8I6tr2ukBTde4jHKv4biOAxEKjqhwdm8cSZkYpbYQGCUjW0NfRfEG+ZaT04ueuzgnTITBcomb7hizayNgoR1uG+a+XhwoP/WvM++VgbufK/8ickI79hOc+76b7mNw5jgiBmbNggeiwLCGNSA/D9FfGSrGnPHvpGLzAkSmjLlUa+ybye24XV4F+/a7mUeNnnD3czRxYktT+DdFaxehbcx8LPfd8VLVfHc6zRvssuu/CQhw65Ca/1TbI3JqwbmQLTrxYBjN7rNiZeJTLeiilw7y1T6VHTlCiTB24ltmMykXbyZnatHHbwH5FYCCrT9/iQbHJp/P9EO5UXSdih5q6L/yjk7CoPOogSNeEHgnGgDw4lcD1QTW1wIpnFi855TT6lY1/HcJGgLZ95sEW/MGixDADued/CGo2L3qM4eIexjERn1xEvh2Q7j/cwY+B8kcINIFZiPHnZmJwNhix1rLKZNldguiWmEIcfyoHLPL8iITamYMos3zlxGcavx4AjnqLuSId4Yqi2S5O3bvEvXYvt4U4wftHZ6k1r2dHA+ONAZOOiJio1qGDpYmuz7w8bZaef+CQY2GBkSM0hybd/WBAneqcM7sXlXGAowZFUNuDwOehx4F++6n/cB9k2rJcL0wPZhGaOEC1cgH7zSflUzZJ5AthapUGlXl3dbTxwom2jUvZEVGs1ckK+nsGmBCOhILOzszNriPaEkPZ60g8S8o+AmaX8SOW0Th3dOvHG1maMgthjePLE2prgo5HOnnp/QCuPKQR66H/teO2Q2pHPBxu6Juu/QXdgUEnHKEzs/kaZMP3QQpe3FlLAbOrHNm7y+Pt6ur3GgjYKbW88b7FwdScPc2Ft+qY6XBlJp1fMcci3zTSRBF85+FSXemVrEh/LmOmKevWg/vjzZtzuIIrO1hoZZk9za4MhdrfmJREuptpwfmhm09sryMlhPWvk3rgA1aSWzU26czsCe6VyUsIJ3FTopD/bBreCeCfaZvQtY2/lJYQefhfwGV4Axe463Fip/evDztOftkGnrkdkcbO5+k+YEPJ6L55eTWDxfo6+IcYb3x6myj9WoAhp2GauKMUIfnVF9TeW7xZvmpxZfYeltP6GlHQ41fI77LDhkwRsDRWZukVjEoZrViayicvfRjb0/yMyzslInVaW+efqN7lVa1MG8rZzwSRv3yTd7nu6QxH5SSEUOE5siKvhRmR4UVUEuRtgLsoUCoqroLQq5i0WVPx1I21b2/klGHisrspg+2B4ECbGgSMo8T+gxI5marOfRvdZpNOBlweRlsCnL+SCah6pqrfRRGXPrSzw4rKDrtGDmGVZC1c8kR+NKM1Ufi7GGWaW1bwfeCpnvtwz8UfdOla0yZoGl0PhbsesXihcmjLWIR9s0M8rdJPrAsLFfRQ+FdR+uwxZ7HqqkZTGNUu0Pzpl4SQMJma0y3CnDzcpaTn+GR8V4FCvcemdBOX8outbpU0nzGsqXPyw/mMkXBcRm415TNznh2UlihJ/T/lzQvjVp2DT4wjVB8QVUhrpZvR8Ex5r0JQ3lMqkTGS8Boli5c9EHjKJoBpCoYLIvOF12Fqvz0kDuvWtakcjkcW8YPkWqdwLF5o33IRCtuk8b35zpfV6WmXRY7/5ezful2bZ68b7Rl6B/9jxpaCqtYjLNrJm5RQvaSXXT57LAg2v32Amkv/hsQNY7yWSiNuY49RE3U3DR/yQDew3iQnvVRJ83SOC7mJ4ZmYug38rpKNkcVcg7g3o/rhv1elrgeigaY+Ip7twGNNa52kcfpHC/C9QctNef2Dnh6ZnW6QPQt3tywZb6XrDsbO5qpDbMO9qPoPc+RXrtFztfvQN1Rlxd4+LchEyjp4D7Xzo56coFjyhuFmDxg3pR83pYrI1wh7fG3XoT4qiK5rH2eFSd3szbl2+RXrSBA+5/60K+Jxc8kig7l8B7tsBumZ518jalTl8ueBxRocmyNMon8Y29sPV26ZMW8AcP/qPNe08ueBRRERSKNNpKdm+xeJP30wf/Nea9Nxc8hnL97DPsSE5uo55bqSDq6YNv7wrdu9lgKcSrgGEx151l30bx5+/Z+vp/H0p9cbPOW1+/TCad//OGl5eXl5eXl5fXbdJ4/Kbv4Aeu9XrdaOHtJqndcgRaXrit4912s9nu7D+xsluvb+tfK3hdzUajBt0tMO06crwcDYcj/Le0jPyC5qAxD9Dm10G3ZsDPYTMdgjoO5LPRcDTbbJb4Q7dukPRsuZzhz3PVuhx63j1C3ud2w/mom/cWOO/ww2qmzxgj5jWhHe/gs5oHz7tXwHs4WpnfV6Me+wbK0vFMNW9AvDRHbPRvnnevkPdw2fi9g/fY8js7OT+bkbs0wPNv6IPn3avZaLOUjgK1A2SzTt5g342/8jYdDWduGgJxkoKm590r4L2yuA2HsynxXq2Mk5muVuPBrOHnybwbqSHMAC0Vz7tXM6C41K4ZPMJuTLzBVJXRQ2YCpr2GeOmm3jA3zd7ORSLoefdqBjFuDDGS+EwR4ZT898VI09wJN03p92ytQa6Ut7a0FrPkefcKeaNZk68A81xJ3ug/pEdZyk+UKZq6ZteqlGgOtgPPe4+INxdwV4Rd8t4p811pS8dacqjry7XxOFpTuRQ87z4Rb4CLTAUmyRvdM0HbWFyn6xl6lSFmKp73dSR4o/e42AlnoHhvBU/eCIsr9OPY0uVPLsSi8Lx7JXljeJwJsIr3WCR3baxrUdnDKXaCuBJf0cGed68kbwqGwj8o3uhIVlRwNtmJunKsHA5qvKSYKkOr590rxRtKFVnWa95TdA466xubTFDmiiZtVwFAJZGed68Ub3TXIv/TvBGbSBFBawuuxIo/NNZz9CRqT8vz7pXmzbcy2zC8Ifpth/J7kxWafaqltT04xm0vtTHgefdqZu+okgxvsVkry5ultuad2gnHtH2mtlkuRuZgz7tXe3nvRiYZRAMeblfTi41pnOIzn+VuyserHc2NXCLAe7tW+h4G8QPSXt5owKbWgTqHHlSCUSvrnVL5I1qHxuMsVeNoNGrtaf24NWzztp4XL+2t8PG5JLuxnMV6JliDK9+a5zsjo65nRT9iTactTzudqgcLcvtJa7XebrY79wS+Wp8vzzfrKcZR+eR+PLV0Qzd+G3X+au81cO+rX0vTUfORjtdNajOyn9x73bDkhpXX96Rtxwa3141p7HNnLy8vLy8vLy8vLy8vLy8vLy8vLy8vLy8vLy8vLy8vLy8vLy8vL6+3RP8HujUUNxgVJGAAAAAASUVORK5CYII=;" vertex="1" parent="ikngprKoodgcfhLvlv2f-8">
          <mxGeometry x="10" y="10" width="160.73" height="60" as="geometry" />
        </mxCell>
        <mxCell id="ikngprKoodgcfhLvlv2f-4" value="" style="shape=cylinder3;whiteSpace=wrap;html=1;boundedLbl=1;backgroundOutline=1;size=15;" vertex="1" parent="ikngprKoodgcfhLvlv2f-8">
          <mxGeometry x="130" y="78" width="140" height="80" as="geometry" />
        </mxCell>
        <mxCell id="ikngprKoodgcfhLvlv2f-5" value="&lt;font style=&quot;font-size: 18px&quot;&gt;DB&lt;/font&gt;" style="text;html=1;strokeColor=none;fillColor=none;align=center;verticalAlign=middle;whiteSpace=wrap;rounded=0;" vertex="1" parent="ikngprKoodgcfhLvlv2f-8">
          <mxGeometry x="180" y="120" width="40" height="20" as="geometry" />
        </mxCell>
        <mxCell id="ikngprKoodgcfhLvlv2f-19" value="" style="group" vertex="1" connectable="0" parent="1">
          <mxGeometry x="-720" y="360" width="290" height="190" as="geometry" />
        </mxCell>
        <mxCell id="ikngprKoodgcfhLvlv2f-20" value="" style="rounded=1;whiteSpace=wrap;html=1;sketch=1;strokeWidth=1;fillColor=#f8cecc;gradientColor=#ea6b66;strokeColor=#b85450;" vertex="1" parent="ikngprKoodgcfhLvlv2f-19">
          <mxGeometry width="277.2976352469569" height="189.99999999999994" as="geometry" />
        </mxCell>
        <mxCell id="ikngprKoodgcfhLvlv2f-21" value="" style="shape=image;verticalLabelPosition=bottom;labelBackgroundColor=#ffffff;verticalAlign=top;aspect=fixed;imageAspect=0;image=data:image/png,iVBORw0KGgoAAAANSUhEUgAAAQsAAAC9CAMAAACTb6i8AAAAYFBMVEX///9h2vtT2Pta2ftQ1/v6/v9k2/u+7v3o+f77/v/x+//W9P6J4vyt6v30/P/d9v7J8f2a5vx/4Pxw3fvR8/6i6PzG8P3r+v7h9/6R5Px53/yq6f2E4fyg5/y27P2/7/0bvz2NAAAN0ElEQVR4nO1dibaiuhKVJAwKiAgqoAf//y+fQEbI5G1Rsl72Wrdvt4d4kkpVpcaw23l4eHh4eHh4eHh4eHh4eHh4eHh4eHh4eHh8HvvwX0bfkuTwqZn8FLc+iwBCIMrydP/26CRuIwQAQKC7JyvM7ptIMgBhMAJCALLTO4MPeUVHv8ajs9PUyBFdyrQeAP9ulmPTx2zwixr5qrNdFRkIFoAgs9ne+sUSy8GgXX3OK6GVkGLc3sykCotKPjQA5Vdm/nH0ivUMvHHRDTxmSDUyQG9pnK3gBujKARz/46kR1MqBvSAdr5FRVQX0M3D84ho+hQeePSqLl3URNs8W8IsEmdzmuHUcO0FU5cX4XHLBH0MHpaTBfA4K9ln94KgBoYw1YsQ/ceHUbIGJgdyzu9ppTSAVPr2V3FrRYov3D8BRohd/WE8/g/dV570CQqDg6EPLqAErcY+bACopsaPkDdab9Tq4TrRAEk3XMI0AAS8nT3Z8oFYy8IYWUucEpj2Ectvoyc4UzpQsKSlgJF/uGTopJFhbKE7OI9ML1JQ804/Qn+JLMbNVa0x4PWDjAih99ZjJSTe4r8eIsAoMUtWgAxa8Vaa8Gk7TrDv1Eze2+Oi4u1GtCc6aWEc0PdJ8fsIrIp8kW2tqU3cFBieZ/pANGZ8D189OdmWUEy2e2od6piyp9tC7G5jEbrnu3bSBSsmfkM68NxgY3PlJ9Bwzw6tpl02RiiQQ3LDK5HdNdjh8fGqaXwEWfqNPGVac+3E2fm1iVMkbBLQ+/DpKisz88MFBA2NvTYuC4wtz7O84advoA1P8GkJboyjhtSc0hoVDB2mxt6TFYRbfNekXF/nCUkbCSKQFNCkCF2lhqTvJIQIJTaDhhHBRd9qdqRmhQIttM6WTT3Bz8UzFTpRWGdJo7mA6ERYBWvvaSVtrshq0DuUV8XJBVYc2ATKFPA3MszVM7K8K5QwgcXIYTdl3eqToDPenhfu7OfxNk46VDxzp2UHCvw01NdSlCdhPXYaFt4zeFJkkyhKxyOaJcIraL5lCAQbHfmvAzrXSxfgjiR8+LJPjD4GShDgU4FYgvNEbAjVJqomSTxIgSKVn8I/dypxhAxHIRf9ATtO5NNCTVW6YHHFE+cOTXRtQdyYQZRHdbknTFEWRFkXTJLdDQhSq3JoqXDS1SFpHEqUND0XJwptz0NOlLG7LeHg8aWS3Qnwvo3JpCSR1X56H5UuKjxYYCjaCc9nXPGeVLh6pJMWFef1Y9G2FhnIUGzJwBBlqWFDV9umkP3AU1RBR3hwSouaSuIxmRTnvYqBI1MbNDitk5ypziOP5b2QQCTL9zS2PfcDDngQQviM8rqnO8NSaVjQWNsMoqqquO5/PXVdVUQQB4k8TBbLTP5WXfxWnTHFWcAXN17S5HZeW2D68NcUJLAfM6PheMfWv0PxBCSHGosauzIldqXZgB5CCBJiXHUQyjfP6unLr2fZTtyTEQIYsr4cYF7ayjBmyM35uKEq51XkGJYwGQbXhfHvYy1iiu9TEl0qJS2aM/RM3lnikh/rSLb45ADDf5vka3qVKgnekIisJGUCkhIv+H2UqFYLLBqmRi5SgHMIFXnB8whT4H4HdNy4UHMPZN+N/ovv7LTqr4ioWDwDU1jjmycwB4qkjmw6SGxEnGquYDJaXCqlbJFaMG0pevotEaHGA4DzywhMrQPIUTodYliQSJiLxf5yincLJp7NADVBt5kwRuocAvOOtJPEc7EoRxWmbAMTKBeHhJzGOc8ghT3+0jdD4jWMK8ZzrBCGp8Kw1eQIBhUi7bFE8K5zfsLLt3VoRNZsQRJ3gTve8kFxnPM+hqetaEgDDMgXGcAXO3Ish8LTjast/Hx3PWQ036GaBhQMv4uSh2faFfTe6IAB18czLIIcoHD6/yotnU67bBP24NrpkrkOw3JeO8XUuV5x3ZmC/bMtZLpWMGXQBLgVfJhlOXEHkT3OLrLtO2kGGTYLXZoZkj4WfN4FoncFIFBWy4UfKYjI5uLBJ/JAYdBYwkh5q+CSBMQ5/zizOetliJ2ZgT7QJBaseeTagoSUtv2tTpP0eyilg9VeFspBUKus2RILOIdbnoSJEkYOKKvhRXDgha0FK/4K0RZ0lLRQHecgG8Ekxcq7iHJI6eUi3Bf2mz5smuTRxadF1EByRTtQV9CHBnxcjhRozjZZT/yQaeiWZYF2m9yKYyvyTJzlbzJgn4eVImxghbYoWTvDnQZhSa0fyaxF3vFKQYsY9GUdMffkX1cT/fUn/FUQVGBwBThIQzxaNpk2bF3mOmKYi6TtWKt+3P3F9gMnT4uK4Alvkcm2xFIWWmVKmfBk+bL5vZOD5GUOOdImiXsk0tBAWw6qkjQ4uofv7i/k3WJdCEAaYRbMiJSnmRwGtAjUrRTynb5eqJLYVuMTMmnG4Lk8mGuqJ1HyXwqKScg3Yd7WQgK94CNjTgsZ8zb8KF318mxbYajRvVk22VTxwNKSYKYY/YtKZsyH4IPl6VMdkFROcqd8USj+WsIUQ7mGpAKM8Frb782ngsLQpA8bsA7GT8qKhheJBZOJ9yyl9Hk9NRIHDH1uzwBjzdkwOAq9xGSKT4UA8/O8b4XtyPuilk7/wRYhpKUkhqguef5C21ID4veoe+vVwJ4WJOi/hym+/cJT0KiERQhBC4lDrmx3xeQVVlySsiT1tCtIQQ3DMxWlasUUpUEyjPek9CfAndSq0ll3deX2jj0xMzluE0rDWLLB1IDkSzDJK7UkboNGP6hDopiknQOQIa0pR++Uy9QlkjhlIJmIoY3zUA/xdmw2VAFUAmsoGflI8Fv+WxBBzgdixfznruS72y8KdxkbGFUG70eX3qGHj58XaZFWizd7Pr3GcRU4JBRN6z4rst6Q0s0B6lH4CrjUfSC4cxEI0bNZDEv0dE/RcShR0ouKpOcnqVLmiA7u8D0a/re9jN/5AdJlPBf9gUAHkdr55ECLNxtLo8aLTeayGaMyByMS0m/2K/Z3LqP68f6DkgnAwF3gUa8zp9CBla4ueyzDtL3+XPl3sac9HEXEnu2jm7nOuxG8Ld3teBTa/c5KCG/Cm7aJxDNtIy1GMW2QLITnchd+8ieIc8WZF0FJWh0xEdmybLa65GEFKDrA6ndWi7IpWuPVxC+UXI4QbNyGI+nHvcc8ZdVhwFkDXtMqBmGLklBRqlA59JP7KDbWUHFvhdITgfA2JTUCP/OKtBMasRIl65OUuvIrVWoH5ztzvoukEwwkClOEQPVOW2Iq0KvTHFitnR+JSuCgTq/he4rG93pr5zc0kNMdshiPxGcz9pSTgy7m2oejbUIH8eWmSFOl5fqP3yBc1Xc9TYWQsUYmK80XHOl989WCd2VbCfR9NuaTGy4qq2rgYCdJxVUc6kCukpysQirisZMXxKNt2A3PYyy45f5mVKMjy68lOSkiQFF5PeRYomiaijdbFC5B3kIwEoR/rnSjm8sm71V6s1m5PYSqQloFsDRwAiLpHW17ued/3cRy//szvl7J9VIGxxwq229USUpQGYoyMIoFxlIN9iKRE60MtmaOI4b/8emlvg8QrYoXye5MMKGrjhIaG3ELC5fMOdf4I3u/gnqgw9Cxn+dSmNeXRN9UuYoPr/GKUYxr/PSL7pvaxgTXKLs+CHZ2XWXeOI5j8iWXk5pY+c5Y0gUBUnNzl0P01XbjhwoUB7mDyKuX++Z5ufn19Dodpfs/z19kaX2tSrgOldlQzi2E4gmlJimQr8d4X3E7yKUhuSe2B7lu3ij3OASh+TPyNWQyGZOKUr61x8gIMUzlXJmMAWpmlVAg46OnWQVIb7teidXwcv4dUcSrTHFgju/VyBePFebRsk3lpxCPT1N/EiwY8B2C+OI9m6YlAELHRFbfXLh6qU2pEW8B056/vZIlmbWuQ4Tq3bQLfWalV+JQRhtWTAgR95RnJRH50rmvDquqUNuNcdvHsNk8FSAPbxrr59ahsjCJ6hydgr98wZDpwVtWd+3J2lBaGlbFX4wXGI2TCRAvzewq2hMhuzoUYzjP3uv+oE+CfYEkLsUUVme1JF2lhJyM7oQDUJkGM3KWFhUPJYsQ2FpSL+gJfzGtunOVesmpRmRG6eI7Y2FoDLrzyNFf4W3etbAmWl1fPXsgMI4MiwDa4W++ZsLrU/MiVh+L/Q32i9eSib3a1uPi/oAFxwBQo0pIvdzEQXpgdSvamt9f6G65mVjMms2G3rYEofOXhFzJVMb5Zgn89otoQx+RyLLWMX0CiUp5cDTduqQpZ1kT5DhKsOt0yL2idq0Jh8K+NpUcHd/mO4h61u10P/daA69qlLWL81Ud8/yXTIIrXyVpWOG0Oynnz1Y+zN4QW3CW4knbC3tE8O/Ez5mZ4wr+GG87t0iNHJxDNupVISaRrIsLqz4SejvTB1fmBh0SAODkJQJDzduiiztEd4O4Z1nFU3COhsF++JuH+SwjOMWasmjYafmf6HwXt3gZBe7+XnVihCc5K10O4IXaoRamyrKPlCI69YBjjDtiCZgUoEOpWdDvP2jW50T/oVv8IFDdoDR03hpFpBRRDA6dCFwz7SkYMiEqLEN0pktXLQvNrRTeLx3x7X9J/sQxW1str14HxhcxbRswX8UKIuucbKa/kwpeHvsjoln+6wL6vhrfyDFV5QRa/Hb9u+gd+qRE8x05lDuU4Fqc4PqX/OY5/bNI0/c31ix4eHh4eHh4eHh4eHh4eHh4eHh4eHh4eHh7/L/gfRoKAr7PoaxEAAAAASUVORK5CYII=;" vertex="1" parent="ikngprKoodgcfhLvlv2f-19">
          <mxGeometry x="202.64057960354538" y="14.808823529411763" width="52.43231424148606" height="37.11977554179566" as="geometry" />
        </mxCell>
        <mxCell id="ikngprKoodgcfhLvlv2f-22" value="&lt;font style=&quot;font-size: 18px&quot;&gt;Frontent - React App&lt;/font&gt;" style="text;html=1;strokeColor=none;fillColor=none;align=center;verticalAlign=middle;whiteSpace=wrap;rounded=0;sketch=1;" vertex="1" parent="ikngprKoodgcfhLvlv2f-19">
          <mxGeometry x="59.67231804641243" y="111.76098039215685" width="170.64469861351188" height="15.833333333333332" as="geometry" />
        </mxCell>
        <mxCell id="ikngprKoodgcfhLvlv2f-23" value="" style="shape=image;verticalLabelPosition=bottom;labelBackgroundColor=#ffffff;verticalAlign=top;aspect=fixed;imageAspect=0;image=data:image/jpeg,/9j/4AAQSkZJRgABAQAAAQABAAD/2wCEAAkGBxMQEhUSExMVFhMTFR4XFxYVFRcVGhUWFhUXFhUXFxcYKCggGBsoGxUYITEhJSorLi4uGB8zODMtOSktLisBCgoKDg0OGxAQGy8lICYtLS0tLS0tLS8wLS0tLS0tLS0rLS0tLS0tLS0tLS0tLS0tLS0tLS0tLS0tLS0tLS0tLf/AABEIAJMBVwMBEQACEQEDEQH/xAAbAAEAAwEBAQEAAAAAAAAAAAAABAUGBwMCAf/EAEcQAAEDAgAICQkFBwQDAQAAAAEAAgMEEQUGEiExQVPRExUWIlFhk6KyBzIzNHFzgpGxI0JSgaEUQ2JjcrPBVIOS0sLh8DX/xAAaAQEAAwEBAQAAAAAAAAAAAAAAAQIEBQMG/8QALREBAAICAgEEAQQABgMAAAAAAAECAxEEMSEFEhNBURQiM2EVMoGhwfAjQnH/2gAMAwEAAhEDEQA/AOn4NwfDwMX2Ufo2/u2/hHUvWIh4zKTxdDso+zbuU6hG5OLodlH2bdyag3JxdDso+zbuTUG5OLodlH2bdyag3JxdDso+zbuTUG5OLodlH2bdyag3JxdDso+zbuTUG5OLodlH2bdyag3JxdDso+zbuTUG5OLodlH2bdyag3JxdDso+zbuTUG5OLodlH2bdyag3JxdDso+zbuTUG5OLodlH2bdyag3JxdDso+zbuTUG5OLodlH2bdyag3JxdDso+zbuTUG5OLodlH2bdyag3JxdDso+zbuTUG5OLodlH2bdyag3JxdDso+zbuTUG5OLodlH2bdyag3JxdDso+zbuTUG5OLodlH2bdyag3JxdDso+zbuTUG5OLodlH2bdyag3JxdDso+zbuTUG5OLodlH2bdyag3JxdDso+zbuTUG5OLodlH2bdyag3JxdDso+zbuTUG5OLodlH2bdyag3JxdDso+zbuTUG5OLodlH2bdyag3JxdDso+zbuTUG5OLodlH2bdyag3JxdDso+zbuTUG5OLodlH2bdyag3JxdDso+zbuTUG5OLodlH2bdyag3JxdDso+zbuTUG5VmMdBEKaT7KP7v7tv429SrMeE1nys8Gehi92zwBTCJSVKBAQEBAQEBAQEBAQEBAQEBAQEBBGqa+KI2kkYwkXAe9rSR05/Ypisz1Ctr1juXlxzTf6iHtWb1b2W/Cvy0/KVBO2QZTHNc06C0hwNsxzhUmJjteJiY3D0RIgICAgICAgICAgICAgICAgIKzGX1aT4fG1RPS1e0rBnoYvds8ASESkqUCAgICAgICAgICAgICAgICAgICDm3lKaDVR3ANqcnP/W5dT07qzjeqf5qssI238xum2j+G66mo/Dke60R26b5OvUIv6n/3XL5/l/yy+l4X8MNKs7WICAgICAgICAgICAgICAgICCsxl9Wk+HxtUT0tXtKwZ6GL3bPAEhEpKlAgICAgICAgICAgICAgICAoGBwxjnUxVEsTGQZMb8kF4fc5gdRsulg4UZKRbbk8j1C2K810hSY+1gBORT2GfMJP+y9Z9OrH28o9UtM60+hj1WfgpvlJ/wBlMenV/KJ9VtH0osN4Xmq5mvkEQLYi0ZOVk5OUTnuTnzr3wcf4fEMvI5PzxuUT7T+X+um31stX7mX9v9umeTr1CL+p/wDdcvn+X/LL6Xhfww0qztb5lkDQXOIAAuSdAA0kprfgmdRtEwVhWGqZwkLw9ug6iD0OBzg+1WtS1J1KmPJW8brKaqriAgICAgICAgICAgICAgrMZfVpPh8bVE9LV7SsGehi92zwBIRKSpQICAgICAgICAgICAgICCPWVscIBkkYwE2Be4NuegXUxWbdK2vFe5ReP6X/AFMPas3q3xX/AAr81Py5bhyoY+rqHNe0tM2UCHAgjJGcHWu5xPGOIl87zZ3lmYVs7hkHnA822Y/xXXvbUQ8K7menqHtzHKbpB0jU2ymJj8qzE/h43GUBlD0ZF75r3UbjafOv9XtltvfKb5wOkfhsreFfM/Tf4h4Xp4qKNj5omOBfdrntaReRxGYnoXC5NLTknUPouHkrXFETLRR4cpnENbUQlzjYASNJJOYAC6zzjtH01RlpPUqPykVhZTsiabGeQNP9DRlO/wAD81o4WP3ZfLL6hk9mLx9sPg+ufRyCeLVmezVIzWD19B1Lr8rjVyU8OHxOVbHfy6/S1DZWNkYbte0OaekOFx9V87ManT6itomNw9UWEBAQEBAQEBAQEBAQEFZjL6tJ8PjaonpavaVgz0MXu2eAJCJSVKBAQEBAQEBAQEBAQEBAQYryntuynB2x8BW70+P/ACOb6n4xsFZtvMbo6B+Ky7Xj8OF5/L5ijblO5o88DRoFtSrERvpMzOo8/T5naMg81o5t8w/ispnWuiu99vVrG5hkt0gaBrbdIiFZme9vKwygclvoybWzXuo1G1tzrW/t7Bjb2yW+dbQPw3VtR+Fdzrt4QAZF8lp5rjnHQcyrWI10tbfu7TsGtAqYLNAtUxjMLa2n/K8uTEfHb/v09uJM/LXy2vlNhPBwS/dZKWnqy25j82/quZ6feIyOt6nWbYtsW/QfYu9PmHzUeJftPhGpja1jamVrWCzWtdYADVYLJPDxz5mG6OdkiNRK4wHjTWNmjjL+HEjw3JeAHZ9JDxnzDPnusnJ4eOtdx4beJzst7RWfLp65LuCAgICAgICAgICAgIKzGX1aT4fG1RPS1e0rBnoYvds8ASESkqUCAgICAgICAgICAgICCtxjr3U1NLM22Uxt23zi5IAuOjOr4q+68Veea80pNocywxhuprWsEnAgRuyhktcM9rZ7krt4eHGOfdWXz2fnfLHtsrsiT+X8iterMe6f2+WxSAk8zOb69KiK2hM3pP5JIZHAjmWObMCk1tPgi9Infl+hkv8AL+R1ZlOrf0j3U/t88DJe/M0WtY2t7FX2W3tPvprXl95Mv8v5FW1ZG6f2+I4JGi3MI6wdelRFbRCZvSZ+3pFwrXseODyo3h4zGxc03F+kZlXJjtePbK2PLXHb3QtMKYaqqpuRNKBGdLI2BoNjcXJuf1Xhi4NKTtoy+o3yRpWyutZoBJJDQBnJJzADpK13tFK+WKlJyW1CbDgKskNm0sg632jA9pcsludjj7bK+nZreJht8UsU/wBlPDTOD5yLC3mxg6Q2+knp/wDd+VyeVOXxHTs8Thxh8z21KytwgICAgICAgICAgICCsxl9Wk+HxtUT0tXtKwZ6GL3bPAEhEpKlAgICAgICAgICAgICAgqMbocuiqGjTwTj/wARlf4XphnWSJePIjeOXKqV12j2D6L6ek+HyF41aXsrKiD8QLoP1AQEBB8udZBeYg4K4eoM7h9nT+b/ABSkf+Iz+0hcj1DP49kO36Zx/Pvl0xch3BSCAgICAgICAgICAgICCsxl9Wk+HxtUT0tXtKwZ6GL3bPAEhEpKlAgICAgICAgICAgICAg+XsDgWnOCLEdIOlI8ImNxpxeSlNPLJA7TE8t9rdLD+YIK+k4uT30iXyfLxTjyTD0WllEFjgFzRKb5AdwbuCMlsgS2+zL75rX6epY+dGScP7P+w3enzjjPHyf9lIw9JeODhBH+0gESmNzXAgWyC4s5occ+YaFn9NjJEW929fW2n1acXur7Nb+9KVdRyH6gIPlzrIP2io5KqUQRec7znao263FZeRnjHVs4vGnLZ1vBODmU0TYYxzWD8ydbj1k5189e83t7pfUY8cUr7YTFVcQEBAQEBAQEBAQEBAQEFZjL6tJ8PjaonpavaVgz0MXu2eAJCJSVKBAQEBAQEBAQEBAQEBAQYzygYAdIBVQtvJG2z2j78Yz3HSR9PYtvD5HxzqenO5/F+Svujtk8GYJq6hgkigD2O0OEsdvYbm4PUV0rc+lJ1Ll09NyZI3VeUOIVZJ6V8cLddvtH/Ic39VkyeqR/6w2YvRrb/fL6xnxT/Y2NfGXvjAs8uzuDvxG2o/ovXhc75J9l+/p4eo+n/DHvp19syuo5D9QEHw59lEyRD1wVg6asfkQNzA86V3mM/PWeoLJn5dccf23cfhXyz/TqGL+AoqKPIZncc73nznnpPQOgalwsuW2Wd2fR4cNcVdQtF5vYQEBAQEBAQEBAQEBAQEBBWYy+rSfD42qJ6Wr2lYM9DF7tngCQiUlSgQEBAQEBAQEBAQEBAQEBBnazF98UhnopBDI7O+NwvDKf4mjzT1he0ZImPbfzH+8PCcVqz7sc6n/aX7HjZJBmq6WWK334xw0Z67tzj2Kk8eLf5JWjlTX+SuktmOdDILGoiscxD7t/IhwVf0+Ws9PT9ThtGtsbh6korl9NVwD+W6TN8JGj2H5rrcfl5Y/bkrM/24XK4OGZ92G0f/GYbVBxs27j0MBd8rLoTnpEdubHGyTPSyo8AVk/mU7mg/el+zHyOf5BZr87HVqx+nZbfTTYK8n7RZ1VIZDs2Xaz8z5zv0XPy869vEeHUwem0p5t5bOmp2RtDGNDWtzBrRYD8gsUzMzuXRrWKxqIeihIgICAgICAgICAgICAgICAgrMZfVpPh8bVE9LV7SsGehi92zwBIRKSpQICAgICAgICAgICAgICAgICgeE1FG/zo2O/qY0/VWi0x9qzSJ+nm3BcA0QxD/bbuUzefyj46/hJYwN0AD2C30VdzK3th9IkQEBAQEBAQEBAQEBAQEBAQEBAQVmMvq0nw+Nqielq9pWDPQxe7Z4AkIlJUoEBAQEBAQEBAQEBAQFAxODcZJ34VkpnOHAgvaG5I5uQ0kOytJJtrOta74axhi/2w0z3nPNPptllbhAQEBACDFYl4xT1VVURSuBY0FzAGgZGS/JABGcix130LVnw1pSJhh4+e17zWW1WVuEBAUAgKQQEBAQEBAQEBAQEBAQVmMvq0nw+Nqielq9pWDPQxe7Z4AkIlJUoEBAQEBAQEBAQEBBncYMcqejdwZvJINLGW5v9TjmB6tK98XHvk8s2XlUxzrtT0vlLhc60kMjB+IEPt7RmPyuvW3CvrxLxrz6zPmFPi7O2TDLnsN2PfK5pGsFjrFeuWs148RLww2i3JmYb7DuH4KJodK7O7zWNzud7B0dZzLFjxWyTqro5c9cfmWWHlNiyvV5Mnpy23+Wj9Vp/RW12yf4hXfTV4Ew3DWMy4XXt5zTmc09Y/wA6FlyY7Y51Zrx5q5I3VJr66OnYZJXBrG6Sf0AGs9SrWs2nUL3vFI3ZjajymQh1mQSOb0uc1t/YM61xwra8yxT6hXfiF5i7jbT1pyG3ZJpyH2BIGnJIzO+vUvHJgtj8z098XJpk8R2yfk39eqf6Hf3WrTyv46sfD/ls6DhHCMVOwySvDGjWdZ6ANJPUFirSbzqro3yVpG7SpsW8bo66V8TI3tyG5Qc63ObcNzgeabkZvavXLx5xxEy8cPJjJMxEJOMGNEFFmkJdIRcRszut0nU0e1VxYbZOlsvIpj8SzsXlNiLrOp5A3pDmuPyzfVe88K2u2aPUK76bDBWE4qpgkheHNOboIPQ4aQVlvS1J1ZtpkreNwz4x+pxLNHI1zBESA7zsstdkkBo0G+jqGpe/6W+omPtm/WUi0xP0rpPKbFlWFPIW9Je0H5Z/qvSOFb8vOfUK78Q1uAsLx1kQmjuASQQ4WIcNINs2saFlyUmk6lsxZYyV90LBUeggICAgICAgICAgrMZfVpPh8bVE9LV7SsGehi92zwBIRKSpQICAgICAgICAgIKvGjCJpqWWZvnNbZvU5xDWn5uBXpip7rxV457+zHNmK8n2LUdQ11VUDhLvIa12cEjO57vxG5tn6CtfJzTWfZVh4mCLx77NhhXFilqGFhiY025r2NDXNOogjT7DmWWma9Z3tuycfHeNac8xJpTDhMRO0xmRpI/hY4EjqzLdyLe7Dv8AOnM40ezNqfp6YEpDheukklJ4JvOIvbmXtHGOgW0+w9KjJb4McRXtbHX9RlmbdOjOxfpSzg/2eLJta2QPrpv1rB8t9726fw45jWnOauA4Iwkzg3Hgn5JsTpie4tc09NiDY9TVvifmxTvtzJj4M0a6S8dpH1uEGUTXWawtb1Bzmh7321kNP6darx4jHim6/JtOTNGOOm3wfi3SwMDGwsObO57Q9zuskrHbNe0723UwY6xrSNSYn0sVS2pja5rm6GA8wEggkDSMxOa9upWnPea+2Va8Wlbe6HN8DYeNDPUSNYHudlMbc2APCXudZGbQt98PyUrDmUzfFe0peBcHTYYmc+acWZ5w+8AdUbNDR1/VVyXrx66rC2KluRbdpdHp6GDB9O8xMAaxhe7W5+S0m7naScywTa2S0bdOKVw0mauWYCnppqh89fITc5WTkvOW49OSDZoAGb2dC6WSt4pFccOTitS15tllr6rDOBpGcG5rMm2bJge0jra5rbgrJGPPE7/5bLZuNaNf8M5idXimwgI4pC+CV3B3ILcoEfZktOhwcbf8ulaM9Jti3aPMM3GvFcuq9SjYPwR+2YRkhJIbw0jnkaclshvbrJIH5q98k48USrTF8maYdShxfpWM4MU8WTbQWNdf2k5yVzJy3md7daMGOI1pMo6OOFgjjY1jBoa0WGfOVWbTM7letYrGoe6hYQEBAQEBAQEBAQVmMvq0nw+Nqielq9pWDPQxe7Z4AkIlJUoEBAQEBAQEBAQEFTjVg81NJNE3znNu0dLmkPaPzLbfmvXDeK3iZePIp78c1Y/yc4xxwsNLM4RkPJY53NFz5zHE6Dfp6Vp5WGbT76sfDzxWPZbw2WFcYKemYXvlbozNa4Oc49DQProWWuK1p1ENt81KRuZYbyfQPqq2WscLNGWT0ZcuhoOuzSf06Vs5UxTHFIc/iVnJkm8omLtZxTXSRTAiN3MJtobe8cnWLfXqVstfmxxNe1cVv0+WYt06W7C9OGcJw8WRa+Vlttb5rn/HbetOp8tNb25phKp42wlGIgeDbktBt+7Y4ue89F7m3w9K6FY+HFO+3Ltb580a6Ssc2vosJMrA27Xlrx1lrQx7L6jkj9VXBMZMU0W5ETizReG9wfh2nnYHslZbWC4NLepzTnBWK2K1Z1MOhTNS8biUalxqpZKgUzJMp50EC7CQCSA7QTYHq61acN4r7phWORjm3sifLC4h0Ec1dPwjGvDA5zQ4XAdwgF7aDmOtbOTea466YONStsttw+sZsCy4LnbV0xIiys2sMJ0xvGth1fLSAUw5IzV9l+zPitgt76dNrgzCceE6R4ackvY6N7dJjc5pH5jPcHX8wMd6Tiu3UyRnxuZ4v0tMyd8Fe1zbHJDspzQx4OcOt909Ps1FdHLa81i2Ny8NMcWmuVsqrFjBMTOEe8Blr3E5N/YAbuPUFkrmzzOoj/Zttg49Y3t64p4FwdKRU0zXkxPsMtz+a8AEHJOY5iCFGbJlj9tlsGLDafdRS4j/AP6tR/vf3gvbkfw1/wBGfi/zz/q6Yue6ogICAgICAgICAgICCsxl9Wk+HxtUT0tXtKwZ6GL3bPAEhEpKlAgICAgICAgICAgKBmMYcSYKtxkBMUh0uaAQ49LmnX1iy04+Teka7hly8SmSd9SpqPyZMDryTuc3oYwMJ/Mk/RetubOvEPCvAjfmW4oKGOnjEUTQ1jdAH6knWesrHa02nct9KRSNVQMYMXIK1oEgIe3zZG5nN6usdRV8ea2OfDzy4K5O2THkwGV6ycn3QyvnlW/Rav1s66Y/8P8AP+ZrsAYAhomlsTTd3nPdnc62i56OoZllyZbZJ/c24sNcUftS8J4OiqYzFK0OYfmDqIOo9arS81ncLXpF41LEVPkxYXXZUEN6HxhxH5gi/wAlsrzZ15hhn0+N+JX2LmJ0FE7hATJKBme6wybixyWjR7c5Xhl5Fsnj6aMPFrj8x2Yu4qto55phIXcLcBpbbJBdlG51m9uhMueb1iNdGLjxjtNt9r+pgbI1zHtDmOFnNOgg6l4RMxO4aLVi0alnsWcUW0M0krZXOa9uS1hFskZQdzj94i1gbDSV75c85IiJhnwcaMVpmJe2MeKcFbznXZKBbhGWuQNAcDmcP/rqMWe2PxHSc3Gpl8z2zkPkwaHc6oJb0NjAPzJP0WiebOvEM0cCPuW0wPgmKkj4KFtm3uSc5c7W5x1nMPksl72vO5bceKuONVVWBcVG01VLUiQu4TKs3Jtk5bg91zrzjNmCvkzzekV/Dyx8aKZJvto14tIgICAgICAgICAgICCsxl9Wk+HxtUT0tXtKwZ6GL3bPAEhE9pKlAgICAgICAgICAgICAgICAgICAgICAgICAgICAgICAgICAgICAgICAgrMZPVpPh8bVErV7ZHB+MFRwUf2n3G/cZ+EdSrtbT35Q1O07jNynZqDlDU7TuM3Iag5Q1O07jNyGoOUNTtO4zchqDlDU7TuM3Iag5Q1O07jNyGoOUNTtO4zchqDlDU7TuM3Iag5Q1O07jNyGoOUNTtO4zchqDlDU7TuM3Iag5Q1O07jNyGoOUNTtO4zchqDlDU7TuM3Iag5Q1O07jNyGoOUNTtO4zchqDlDU7TuM3Iag5Q1O07jNyGoOUNTtO4zchqDlDU7TuM3Iag5Q1O07jNyGoOUNTtO4zchqDlDU7TuM3Iag5Q1O07jNyGoOUNTtO4zchqDlDU7TuM3Iag5Q1O07jNyGoOUNTtO4zchqDlDU7TuM3Iag5Q1O07jNyGoOUNTtO4zchqDlDU7TuM3Iag5Q1O07jNyGoOUNTtO4zchqDlDU7TuM3Iag5Q1O07jNyGoOUNTtO4zchqDlDU7TuM3Iag5Q1O07jNyGoOUNTtO4zchqDlDU7TuM3IahBw7h+oMDwZOj7jPxt6lEpiPL//Z;" vertex="1" parent="ikngprKoodgcfhLvlv2f-19">
          <mxGeometry x="21.33058732668899" y="14.808823529411763" width="86.60270897832817" height="37.11977554179566" as="geometry" />
        </mxCell>
        <mxCell id="ikngprKoodgcfhLvlv2f-24" value="" style="group" vertex="1" connectable="0" parent="1">
          <mxGeometry x="-620" y="600" width="390" height="150" as="geometry" />
        </mxCell>
        <mxCell id="ikngprKoodgcfhLvlv2f-1" value="" style="rounded=1;whiteSpace=wrap;html=1;strokeWidth=1;fillColor=#d5e8d4;strokeColor=#82b366;gradientColor=#97d077;" vertex="1" parent="ikngprKoodgcfhLvlv2f-24">
          <mxGeometry width="390" height="150" as="geometry" />
        </mxCell>
        <mxCell id="ikngprKoodgcfhLvlv2f-12" value="" style="shape=image;verticalLabelPosition=bottom;labelBackgroundColor=#ffffff;verticalAlign=top;aspect=fixed;imageAspect=0;image=https://sdtimes.com/wp-content/uploads/2019/04/14_n18FH8hRrvlLyRufD1sQ.png;" vertex="1" parent="ikngprKoodgcfhLvlv2f-24">
          <mxGeometry x="282.7495760869565" y="9.375" width="75" height="37.5" as="geometry" />
        </mxCell>
        <mxCell id="ikngprKoodgcfhLvlv2f-16" value="" style="rounded=1;whiteSpace=wrap;html=1;" vertex="1" parent="ikngprKoodgcfhLvlv2f-24">
          <mxGeometry x="117" y="65.625" width="175.5" height="56.25" as="geometry" />
        </mxCell>
        <mxCell id="ikngprKoodgcfhLvlv2f-15" value="&lt;font style=&quot;font-size: 18px&quot;&gt;rest-api server&lt;/font&gt;" style="text;html=1;strokeColor=none;fillColor=none;align=center;verticalAlign=middle;whiteSpace=wrap;rounded=0;" vertex="1" parent="ikngprKoodgcfhLvlv2f-24">
          <mxGeometry x="156" y="84.375" width="107.25" height="18.75" as="geometry" />
        </mxCell>
        <mxCell id="ikngprKoodgcfhLvlv2f-17" value="&lt;font style=&quot;font-size: 19px&quot;&gt;Backend&amp;nbsp;&lt;/font&gt;" style="text;html=1;strokeColor=none;fillColor=none;align=center;verticalAlign=middle;whiteSpace=wrap;rounded=0;strokeWidth=1;" vertex="1" parent="ikngprKoodgcfhLvlv2f-24">
          <mxGeometry x="83.08950000000003" y="18.75" width="223.82608695652175" height="18.75" as="geometry" />
        </mxCell>
        <mxCell id="ikngprKoodgcfhLvlv2f-18" value="" style="shape=image;verticalLabelPosition=bottom;labelBackgroundColor=#ffffff;verticalAlign=top;aspect=fixed;imageAspect=0;image=data:image/jpeg,/9j/4AAQSkZJRgABAQAAAQABAAD/2wCEAAkGBxMQEhUSExMVFhMTFR4XFxYVFRcVGhUWFhUXFhUXFxcYKCggGBsoGxUYITEhJSorLi4uGB8zODMtOSktLisBCgoKDg0OGxAQGy8lICYtLS0tLS0tLS8wLS0tLS0tLS0rLS0tLS0tLS0tLS0tLS0tLS0tLS0tLS0tLS0tLS0tLf/AABEIAJMBVwMBEQACEQEDEQH/xAAbAAEAAwEBAQEAAAAAAAAAAAAABAUGBwMCAf/EAEcQAAEDAgAICQkFBwQDAQAAAAEAAgMEEQUGEiExQVPRExUWIlFhk6KyBzIzNHFzgpGxI0JSgaEUQ2JjcrPBVIOS0sLh8DX/xAAaAQEAAwEBAQAAAAAAAAAAAAAAAQIEBQMG/8QALREBAAICAgEEAQQABgMAAAAAAAECAxEEMSEFEhNBURQiM2EVMoGhwfAjQnH/2gAMAwEAAhEDEQA/AOn4NwfDwMX2Ufo2/u2/hHUvWIh4zKTxdDso+zbuU6hG5OLodlH2bdyag3JxdDso+zbuTUG5OLodlH2bdyag3JxdDso+zbuTUG5OLodlH2bdyag3JxdDso+zbuTUG5OLodlH2bdyag3JxdDso+zbuTUG5OLodlH2bdyag3JxdDso+zbuTUG5OLodlH2bdyag3JxdDso+zbuTUG5OLodlH2bdyag3JxdDso+zbuTUG5OLodlH2bdyag3JxdDso+zbuTUG5OLodlH2bdyag3JxdDso+zbuTUG5OLodlH2bdyag3JxdDso+zbuTUG5OLodlH2bdyag3JxdDso+zbuTUG5OLodlH2bdyag3JxdDso+zbuTUG5OLodlH2bdyag3JxdDso+zbuTUG5OLodlH2bdyag3JxdDso+zbuTUG5OLodlH2bdyag3JxdDso+zbuTUG5OLodlH2bdyag3JxdDso+zbuTUG5OLodlH2bdyag3JxdDso+zbuTUG5OLodlH2bdyag3JxdDso+zbuTUG5OLodlH2bdyag3JxdDso+zbuTUG5OLodlH2bdyag3JxdDso+zbuTUG5VmMdBEKaT7KP7v7tv429SrMeE1nys8Gehi92zwBTCJSVKBAQEBAQEBAQEBAQEBAQEBAQEBBGqa+KI2kkYwkXAe9rSR05/Ypisz1Ctr1juXlxzTf6iHtWb1b2W/Cvy0/KVBO2QZTHNc06C0hwNsxzhUmJjteJiY3D0RIgICAgICAgICAgICAgICAgIKzGX1aT4fG1RPS1e0rBnoYvds8ASESkqUCAgICAgICAgICAgICAgICAgICDm3lKaDVR3ANqcnP/W5dT07qzjeqf5qssI238xum2j+G66mo/Dke60R26b5OvUIv6n/3XL5/l/yy+l4X8MNKs7WICAgICAgICAgICAgICAgICCsxl9Wk+HxtUT0tXtKwZ6GL3bPAEhEpKlAgICAgICAgICAgICAgICAoGBwxjnUxVEsTGQZMb8kF4fc5gdRsulg4UZKRbbk8j1C2K810hSY+1gBORT2GfMJP+y9Z9OrH28o9UtM60+hj1WfgpvlJ/wBlMenV/KJ9VtH0osN4Xmq5mvkEQLYi0ZOVk5OUTnuTnzr3wcf4fEMvI5PzxuUT7T+X+um31stX7mX9v9umeTr1CL+p/wDdcvn+X/LL6Xhfww0qztb5lkDQXOIAAuSdAA0kprfgmdRtEwVhWGqZwkLw9ug6iD0OBzg+1WtS1J1KmPJW8brKaqriAgICAgICAgICAgICAgrMZfVpPh8bVE9LV7SsGehi92zwBIRKSpQICAgICAgICAgICAgICCPWVscIBkkYwE2Be4NuegXUxWbdK2vFe5ReP6X/AFMPas3q3xX/AAr81Py5bhyoY+rqHNe0tM2UCHAgjJGcHWu5xPGOIl87zZ3lmYVs7hkHnA822Y/xXXvbUQ8K7menqHtzHKbpB0jU2ymJj8qzE/h43GUBlD0ZF75r3UbjafOv9XtltvfKb5wOkfhsreFfM/Tf4h4Xp4qKNj5omOBfdrntaReRxGYnoXC5NLTknUPouHkrXFETLRR4cpnENbUQlzjYASNJJOYAC6zzjtH01RlpPUqPykVhZTsiabGeQNP9DRlO/wAD81o4WP3ZfLL6hk9mLx9sPg+ufRyCeLVmezVIzWD19B1Lr8rjVyU8OHxOVbHfy6/S1DZWNkYbte0OaekOFx9V87ManT6itomNw9UWEBAQEBAQEBAQEBAQEFZjL6tJ8PjaonpavaVgz0MXu2eAJCJSVKBAQEBAQEBAQEBAQEBAQYryntuynB2x8BW70+P/ACOb6n4xsFZtvMbo6B+Ky7Xj8OF5/L5ijblO5o88DRoFtSrERvpMzOo8/T5naMg81o5t8w/ispnWuiu99vVrG5hkt0gaBrbdIiFZme9vKwygclvoybWzXuo1G1tzrW/t7Bjb2yW+dbQPw3VtR+Fdzrt4QAZF8lp5rjnHQcyrWI10tbfu7TsGtAqYLNAtUxjMLa2n/K8uTEfHb/v09uJM/LXy2vlNhPBwS/dZKWnqy25j82/quZ6feIyOt6nWbYtsW/QfYu9PmHzUeJftPhGpja1jamVrWCzWtdYADVYLJPDxz5mG6OdkiNRK4wHjTWNmjjL+HEjw3JeAHZ9JDxnzDPnusnJ4eOtdx4beJzst7RWfLp65LuCAgICAgICAgICAgIKzGX1aT4fG1RPS1e0rBnoYvds8ASESkqUCAgICAgICAgICAgICCtxjr3U1NLM22Uxt23zi5IAuOjOr4q+68Veea80pNocywxhuprWsEnAgRuyhktcM9rZ7krt4eHGOfdWXz2fnfLHtsrsiT+X8iterMe6f2+WxSAk8zOb69KiK2hM3pP5JIZHAjmWObMCk1tPgi9Infl+hkv8AL+R1ZlOrf0j3U/t88DJe/M0WtY2t7FX2W3tPvprXl95Mv8v5FW1ZG6f2+I4JGi3MI6wdelRFbRCZvSZ+3pFwrXseODyo3h4zGxc03F+kZlXJjtePbK2PLXHb3QtMKYaqqpuRNKBGdLI2BoNjcXJuf1Xhi4NKTtoy+o3yRpWyutZoBJJDQBnJJzADpK13tFK+WKlJyW1CbDgKskNm0sg632jA9pcsludjj7bK+nZreJht8UsU/wBlPDTOD5yLC3mxg6Q2+knp/wDd+VyeVOXxHTs8Thxh8z21KytwgICAgICAgICAgICCsxl9Wk+HxtUT0tXtKwZ6GL3bPAEhEpKlAgICAgICAgICAgICAgqMbocuiqGjTwTj/wARlf4XphnWSJePIjeOXKqV12j2D6L6ek+HyF41aXsrKiD8QLoP1AQEBB8udZBeYg4K4eoM7h9nT+b/ABSkf+Iz+0hcj1DP49kO36Zx/Pvl0xch3BSCAgICAgICAgICAgICCsxl9Wk+HxtUT0tXtKwZ6GL3bPAEhEpKlAgICAgICAgICAgICAg+XsDgWnOCLEdIOlI8ImNxpxeSlNPLJA7TE8t9rdLD+YIK+k4uT30iXyfLxTjyTD0WllEFjgFzRKb5AdwbuCMlsgS2+zL75rX6epY+dGScP7P+w3enzjjPHyf9lIw9JeODhBH+0gESmNzXAgWyC4s5occ+YaFn9NjJEW929fW2n1acXur7Nb+9KVdRyH6gIPlzrIP2io5KqUQRec7znao263FZeRnjHVs4vGnLZ1vBODmU0TYYxzWD8ydbj1k5189e83t7pfUY8cUr7YTFVcQEBAQEBAQEBAQEBAQEFZjL6tJ8PjaonpavaVgz0MXu2eAJCJSVKBAQEBAQEBAQEBAQEBAQYzygYAdIBVQtvJG2z2j78Yz3HSR9PYtvD5HxzqenO5/F+Svujtk8GYJq6hgkigD2O0OEsdvYbm4PUV0rc+lJ1Ll09NyZI3VeUOIVZJ6V8cLddvtH/Ic39VkyeqR/6w2YvRrb/fL6xnxT/Y2NfGXvjAs8uzuDvxG2o/ovXhc75J9l+/p4eo+n/DHvp19syuo5D9QEHw59lEyRD1wVg6asfkQNzA86V3mM/PWeoLJn5dccf23cfhXyz/TqGL+AoqKPIZncc73nznnpPQOgalwsuW2Wd2fR4cNcVdQtF5vYQEBAQEBAQEBAQEBAQEBBWYy+rSfD42qJ6Wr2lYM9DF7tngCQiUlSgQEBAQEBAQEBAQEBAQEBBnazF98UhnopBDI7O+NwvDKf4mjzT1he0ZImPbfzH+8PCcVqz7sc6n/aX7HjZJBmq6WWK334xw0Z67tzj2Kk8eLf5JWjlTX+SuktmOdDILGoiscxD7t/IhwVf0+Ws9PT9ThtGtsbh6korl9NVwD+W6TN8JGj2H5rrcfl5Y/bkrM/24XK4OGZ92G0f/GYbVBxs27j0MBd8rLoTnpEdubHGyTPSyo8AVk/mU7mg/el+zHyOf5BZr87HVqx+nZbfTTYK8n7RZ1VIZDs2Xaz8z5zv0XPy869vEeHUwem0p5t5bOmp2RtDGNDWtzBrRYD8gsUzMzuXRrWKxqIeihIgICAgICAgICAgICAgICAgrMZfVpPh8bVE9LV7SsGehi92zwBIRKSpQICAgICAgICAgICAgICAgICgeE1FG/zo2O/qY0/VWi0x9qzSJ+nm3BcA0QxD/bbuUzefyj46/hJYwN0AD2C30VdzK3th9IkQEBAQEBAQEBAQEBAQEBAQEBAQVmMvq0nw+Nqielq9pWDPQxe7Z4AkIlJUoEBAQEBAQEBAQEBAQFAxODcZJ34VkpnOHAgvaG5I5uQ0kOytJJtrOta74axhi/2w0z3nPNPptllbhAQEBACDFYl4xT1VVURSuBY0FzAGgZGS/JABGcix130LVnw1pSJhh4+e17zWW1WVuEBAUAgKQQEBAQEBAQEBAQEBAQVmMvq0nw+Nqielq9pWDPQxe7Z4AkIlJUoEBAQEBAQEBAQEBBncYMcqejdwZvJINLGW5v9TjmB6tK98XHvk8s2XlUxzrtT0vlLhc60kMjB+IEPt7RmPyuvW3CvrxLxrz6zPmFPi7O2TDLnsN2PfK5pGsFjrFeuWs148RLww2i3JmYb7DuH4KJodK7O7zWNzud7B0dZzLFjxWyTqro5c9cfmWWHlNiyvV5Mnpy23+Wj9Vp/RW12yf4hXfTV4Ew3DWMy4XXt5zTmc09Y/wA6FlyY7Y51Zrx5q5I3VJr66OnYZJXBrG6Sf0AGs9SrWs2nUL3vFI3ZjajymQh1mQSOb0uc1t/YM61xwra8yxT6hXfiF5i7jbT1pyG3ZJpyH2BIGnJIzO+vUvHJgtj8z098XJpk8R2yfk39eqf6Hf3WrTyv46sfD/ls6DhHCMVOwySvDGjWdZ6ANJPUFirSbzqro3yVpG7SpsW8bo66V8TI3tyG5Qc63ObcNzgeabkZvavXLx5xxEy8cPJjJMxEJOMGNEFFmkJdIRcRszut0nU0e1VxYbZOlsvIpj8SzsXlNiLrOp5A3pDmuPyzfVe88K2u2aPUK76bDBWE4qpgkheHNOboIPQ4aQVlvS1J1ZtpkreNwz4x+pxLNHI1zBESA7zsstdkkBo0G+jqGpe/6W+omPtm/WUi0xP0rpPKbFlWFPIW9Je0H5Z/qvSOFb8vOfUK78Q1uAsLx1kQmjuASQQ4WIcNINs2saFlyUmk6lsxZYyV90LBUeggICAgICAgICAgrMZfVpPh8bVE9LV7SsGehi92zwBIRKSpQICAgICAgICAgIKvGjCJpqWWZvnNbZvU5xDWn5uBXpip7rxV457+zHNmK8n2LUdQ11VUDhLvIa12cEjO57vxG5tn6CtfJzTWfZVh4mCLx77NhhXFilqGFhiY025r2NDXNOogjT7DmWWma9Z3tuycfHeNac8xJpTDhMRO0xmRpI/hY4EjqzLdyLe7Dv8AOnM40ezNqfp6YEpDheukklJ4JvOIvbmXtHGOgW0+w9KjJb4McRXtbHX9RlmbdOjOxfpSzg/2eLJta2QPrpv1rB8t9726fw45jWnOauA4Iwkzg3Hgn5JsTpie4tc09NiDY9TVvifmxTvtzJj4M0a6S8dpH1uEGUTXWawtb1Bzmh7321kNP6darx4jHim6/JtOTNGOOm3wfi3SwMDGwsObO57Q9zuskrHbNe0723UwY6xrSNSYn0sVS2pja5rm6GA8wEggkDSMxOa9upWnPea+2Va8Wlbe6HN8DYeNDPUSNYHudlMbc2APCXudZGbQt98PyUrDmUzfFe0peBcHTYYmc+acWZ5w+8AdUbNDR1/VVyXrx66rC2KluRbdpdHp6GDB9O8xMAaxhe7W5+S0m7naScywTa2S0bdOKVw0mauWYCnppqh89fITc5WTkvOW49OSDZoAGb2dC6WSt4pFccOTitS15tllr6rDOBpGcG5rMm2bJge0jra5rbgrJGPPE7/5bLZuNaNf8M5idXimwgI4pC+CV3B3ILcoEfZktOhwcbf8ulaM9Jti3aPMM3GvFcuq9SjYPwR+2YRkhJIbw0jnkaclshvbrJIH5q98k48USrTF8maYdShxfpWM4MU8WTbQWNdf2k5yVzJy3md7daMGOI1pMo6OOFgjjY1jBoa0WGfOVWbTM7letYrGoe6hYQEBAQEBAQEBAQVmMvq0nw+Nqielq9pWDPQxe7Z4AkIlJUoEBAQEBAQEBAQEFTjVg81NJNE3znNu0dLmkPaPzLbfmvXDeK3iZePIp78c1Y/yc4xxwsNLM4RkPJY53NFz5zHE6Dfp6Vp5WGbT76sfDzxWPZbw2WFcYKemYXvlbozNa4Oc49DQProWWuK1p1ENt81KRuZYbyfQPqq2WscLNGWT0ZcuhoOuzSf06Vs5UxTHFIc/iVnJkm8omLtZxTXSRTAiN3MJtobe8cnWLfXqVstfmxxNe1cVv0+WYt06W7C9OGcJw8WRa+Vlttb5rn/HbetOp8tNb25phKp42wlGIgeDbktBt+7Y4ue89F7m3w9K6FY+HFO+3Ltb580a6Ssc2vosJMrA27Xlrx1lrQx7L6jkj9VXBMZMU0W5ETizReG9wfh2nnYHslZbWC4NLepzTnBWK2K1Z1MOhTNS8biUalxqpZKgUzJMp50EC7CQCSA7QTYHq61acN4r7phWORjm3sifLC4h0Ec1dPwjGvDA5zQ4XAdwgF7aDmOtbOTea466YONStsttw+sZsCy4LnbV0xIiys2sMJ0xvGth1fLSAUw5IzV9l+zPitgt76dNrgzCceE6R4ackvY6N7dJjc5pH5jPcHX8wMd6Tiu3UyRnxuZ4v0tMyd8Fe1zbHJDspzQx4OcOt909Ps1FdHLa81i2Ny8NMcWmuVsqrFjBMTOEe8Blr3E5N/YAbuPUFkrmzzOoj/Zttg49Y3t64p4FwdKRU0zXkxPsMtz+a8AEHJOY5iCFGbJlj9tlsGLDafdRS4j/AP6tR/vf3gvbkfw1/wBGfi/zz/q6Yue6ogICAgICAgICAgICCsxl9Wk+HxtUT0tXtKwZ6GL3bPAEhEpKlAgICAgICAgICAgKBmMYcSYKtxkBMUh0uaAQ49LmnX1iy04+Teka7hly8SmSd9SpqPyZMDryTuc3oYwMJ/Mk/RetubOvEPCvAjfmW4oKGOnjEUTQ1jdAH6knWesrHa02nct9KRSNVQMYMXIK1oEgIe3zZG5nN6usdRV8ea2OfDzy4K5O2THkwGV6ycn3QyvnlW/Rav1s66Y/8P8AP+ZrsAYAhomlsTTd3nPdnc62i56OoZllyZbZJ/c24sNcUftS8J4OiqYzFK0OYfmDqIOo9arS81ncLXpF41LEVPkxYXXZUEN6HxhxH5gi/wAlsrzZ15hhn0+N+JX2LmJ0FE7hATJKBme6wybixyWjR7c5Xhl5Fsnj6aMPFrj8x2Yu4qto55phIXcLcBpbbJBdlG51m9uhMueb1iNdGLjxjtNt9r+pgbI1zHtDmOFnNOgg6l4RMxO4aLVi0alnsWcUW0M0krZXOa9uS1hFskZQdzj94i1gbDSV75c85IiJhnwcaMVpmJe2MeKcFbznXZKBbhGWuQNAcDmcP/rqMWe2PxHSc3Gpl8z2zkPkwaHc6oJb0NjAPzJP0WiebOvEM0cCPuW0wPgmKkj4KFtm3uSc5c7W5x1nMPksl72vO5bceKuONVVWBcVG01VLUiQu4TKs3Jtk5bg91zrzjNmCvkzzekV/Dyx8aKZJvto14tIgICAgICAgICAgICCsxl9Wk+HxtUT0tXtKwZ6GL3bPAEhE9pKlAgICAgICAgICAgICAgICAgICAgICAgICAgICAgICAgICAgICAgICAgrMZPVpPh8bVErV7ZHB+MFRwUf2n3G/cZ+EdSrtbT35Q1O07jNynZqDlDU7TuM3Iag5Q1O07jNyGoOUNTtO4zchqDlDU7TuM3Iag5Q1O07jNyGoOUNTtO4zchqDlDU7TuM3Iag5Q1O07jNyGoOUNTtO4zchqDlDU7TuM3Iag5Q1O07jNyGoOUNTtO4zchqDlDU7TuM3Iag5Q1O07jNyGoOUNTtO4zchqDlDU7TuM3Iag5Q1O07jNyGoOUNTtO4zchqDlDU7TuM3Iag5Q1O07jNyGoOUNTtO4zchqDlDU7TuM3Iag5Q1O07jNyGoOUNTtO4zchqDlDU7TuM3Iag5Q1O07jNyGoOUNTtO4zchqDlDU7TuM3Iag5Q1O07jNyGoOUNTtO4zchqDlDU7TuM3Iag5Q1O07jNyGoOUNTtO4zchqDlDU7TuM3Iag5Q1O07jNyGoOUNTtO4zchqDlDU7TuM3Iag5Q1O07jNyGoOUNTtO4zchqDlDU7TuM3IahBw7h+oMDwZOj7jPxt6lEpiPL//Z;" vertex="1" parent="ikngprKoodgcfhLvlv2f-24">
          <mxGeometry x="29.253391304347804" y="14.0625" width="65.625" height="28.125" as="geometry" />
        </mxCell>
        <mxCell id="ikngprKoodgcfhLvlv2f-54" value="" style="group" vertex="1" connectable="0" parent="1">
          <mxGeometry x="-410" y="360" width="270" height="185" as="geometry" />
        </mxCell>
        <mxCell id="ikngprKoodgcfhLvlv2f-35" value="" style="rounded=1;whiteSpace=wrap;html=1;gradientColor=#ffd966;fillColor=#fff2cc;strokeColor=#d6b656;" vertex="1" parent="ikngprKoodgcfhLvlv2f-54">
          <mxGeometry width="270" height="185" as="geometry" />
        </mxCell>
        <mxCell id="ikngprKoodgcfhLvlv2f-37" value="" style="rounded=0;whiteSpace=wrap;html=1;gradientColor=none;" vertex="1" parent="ikngprKoodgcfhLvlv2f-54">
          <mxGeometry x="67.5" y="102.23684210526316" width="115.71428571428572" height="58.42105263157895" as="geometry" />
        </mxCell>
        <mxCell id="ikngprKoodgcfhLvlv2f-38" value="&lt;font style=&quot;font-size: 18px&quot;&gt;fast api- stocks scrapper&lt;/font&gt;" style="text;html=1;strokeColor=none;fillColor=none;align=center;verticalAlign=middle;whiteSpace=wrap;rounded=0;" vertex="1" parent="ikngprKoodgcfhLvlv2f-54">
          <mxGeometry x="91.60714285714286" y="121.71052631578948" width="67.5" height="19.473684210526315" as="geometry" />
        </mxCell>
        <mxCell id="ikngprKoodgcfhLvlv2f-50" value="" style="shape=image;verticalLabelPosition=bottom;labelBackgroundColor=#ffffff;verticalAlign=top;aspect=fixed;imageAspect=0;image=data:image/jpeg,/9j/4AAQSkZJRgABAQAAAQABAAD/2wCEAAkGBxAOEQ8QEA0QDw8OEA4NEQ8QDRENDQ0OFBIWGBYSExMYHjQhGBsxJxMVITIhJjUwLi8uFx8zODMsNygtOjABCgoKDg0OGhAQGisiICYvKy4yLS03MCsyLy0tNzItLS0tLS03LSstLS0tLS0tLS4vLy0vLSstLS0tLS0tKy0rLf/AABEIAMgAyAMBEQACEQEDEQH/xAAbAAEBAAIDAQAAAAAAAAAAAAAAAgEFAwYHBP/EAD8QAAIBAgIECQkHAwUAAAAAAAABAgMRBAUGEiExE0FRVGFxgZGxBxUyUmKTocHSFCRCc5Ky0SI0chYzQ3Tw/8QAGgEBAQADAQEAAAAAAAAAAAAAAAECBAUDBv/EADMRAQABAwEFBQcEAgMAAAAAAAABAgMRBAUSITFRFDJBcbETFSIzUoGhYZHR4ULBI2Lw/9oADAMBAAIRAxEAPwD3EAAAAAAAAAAAAAAAAAAAAAAAAAAAAAAAAAAAAAAAAAAAAAAAAAAAAAAAAAAAAAAAAAAAAAAAAAAAAAAAAAAAAAAAAAAAAAAAAAGGwOOVeC3ySt0gfHPPMNHfiKa66kV8zOLdU+EsJuUx4w4/9RYPnVH3sP5L7Kv6ZT2tH1Q5aWd4abtHEU3fkqRfzMZoqjnEsorpnlMPsjXi90k+0xZORMAAAAAAAAAAAAAAAAAAAAGrz7OIYOm5y2t7IxW+UuQ9Ldua6sQ87lyLdOZed5lpViqzdqjpR4o03Z/q3nRo01FPPi51eprq5cGkrVpTd5SlJ8spOT+J7xERyeEzM83E2VENkVDYGaWInTd4TlBrbeMnF/Ak0xPOGUVTHKXZ8g04rUZKOIk6tLYnL/kh0+14mpd0tM8aeDataqY4VcXp+DxUK0IzhJSjJKSad00zQmJicS34mJjMOcigAAAAAAAAAAAAAAAAB5r5QsS5YiMPwwhftk3/AAjo6On4ZlztZV8UQ49CtH4YyVSpWu6VFxjqJuPCVGr7WtqS2bt9+ja1N6aPhpTTWYr+Kpu9KtEcOsPUrUIcFUoxlVaUpSjUhFXlFpvfa9muM8LOoriqImcw2L2nommZpjEvN2zpOahsCGwqWwIbIPQfJbmbfC4eTulapDoTdpLwfazR1dHGKm/pK+E0vRTSbgAAAAAAAAAAAAAAAAAeW6fP72/8IeLOnpPl/dzNX8z7Pn0V0jeAnPWg6lGrq68Y2U4yV7SjfY99rPo27C6ix7TjHNNPf9nwnk2uk+m8K9GdDD05x4VOFSdRRVqb3xik3v3XfE+7xtaWYqzU9ruqiacUujtm80UNhUNgS2QQ2Fdr8mL++v8AJn++Bq6vuR5trSd+fJ66c50AAAAAAAAAAAAAAAAAA8+0yyHFYjEudKi5w1Iq+vCO1N8TZvae9RRRiqWjqLNddeaYaF6KY7mz95S+o9+02uvq8OzXenoh6JY/mz97S+odptdfU7Nd6eiXojj+bP3tL6h2m119Ts1zp6NbmeV18K4qvT4NzTcVrRldLf6L6T0ouU192WFduqjvQ+BsyYIbAhsK7Z5MH99f5E/3wNXV9yPNtaTvz5PXznOgAAAAAAAAAAAABNSooptuyW0DpWc6b6rcMPFTtda8r6nZym5b0kzxq4NO7q4jhTxddqaWY1u6r6vQqcLfFGzGlt9GtOqu9XG9K8dzl+7p/SXs1rp6p2m719EvSzHc5fu6X0k7Na6eq9pu9fRD0tx3OX7ul9I7Na6ep2m719EvS/H85fuqX0js1rp6nabvX0S9MMfzp+6pfSOzWunqvabnX0a3NM2r4pxdepwjgmovVjGye/0V0GdFumjuw867lVfel8DZmwQ2FQ2B2vyZP75L8ip++Bq6vuR5trSd+fJ6Vwsn+J958Zd11+muqIq8Z8Idum1TMRwZ4SXrPvMPeGo+r8R/DL2VHQhiJx479DNmxtSrOLscOrzqsfS2dCqppNHbiYmMw1nIUAAAAAAAAOjeUDOGrYeErXWtUt6vFE3dJazO/LS1d3EbkOiNnQc9LYENgQ2RUNgQ2FS2BDZBDYVDYEtkHbPJl/eT/wCvU/fA1tX3I821pO/Pk9IW4+Bv/Mq85d+nlA2eOWaWzHKvpy+raWr63id3ZN/epm1Phxjyauoox8TaHYawAAAAAADE3ZMDxzSDE8Lia8r3XCSiv8Yuy8DsWad23EOPeq3rky1rZ6vJDYENkVDYEthUNgQ2QQ2FS2BDYGCDuvkxw74WvWtsp01T63J3sv0/E09ZVEUxEtzSU8Zl38+AuV71U1dXfiMRhLZ5ZZMNkyrNGdpRfSjb2fc3NRT+vD93nepzRLexZ9Y57IAAAAAAPnx9VQpzk9yi33IsRmcJM4jLxKcrtt73t7TuOG42wJbIqGwIbCobAlsghsKhsCGwMEH3ZTlNbFzUKNNyfHLdCC5ZPiMK7lNEZlnRbqrnEPV8nyqGDoxowes1/VUl69Tjf/uQ+X2truE0Rzn8R/bt6Wxuw+1s+ay30tmOVS2Y5Vhlpr3aoq6LMZjDf4f0V1H3LkuQAAAAAAGvz/8At61t+pPwZlR3oY192Xi7Z23EQ2RUNgQ2FfRl+Aq4map0oa0nt6Irlb4kYV1xRGZZUUTXOId4y3QnD00nXlKtPjjFuFOPdtZytTtOm3znH5l0bWiiefFuqeQ4BK32Om+uKb+Jz52zR1qbPY46QrzHgOZUv0RJ75o61L2OOkMeYsBzKl+iI980dajscdIPMWX8ypfoiPfNHWo7HHSETyPAcWBo36YRt4EnbVHWr/33OxR0h9VKEYJRhCNOK/DBKKXcc/UbXrr4URj9Z4y2KNNEcxs49VUzOZbUQlswyrDZMqlsxyrDZjlXYMN6MepH3dvuRnpDkVc5cpmgAAAAAHDi4KUJJq6aaEEvDKsXFuL3xbi+tM7kTmMuHMYnDibAlsKhgeo6M5T9koxVrVaqU6kuPoj8fE+d2nrdyMxz5R/Ls6SxiMfu3CPlaqpqnM83SiMBioBhsmRhsmVS2Y5VLZjlWGyZVLZjlWGzHKpbJlUtimmaqopjxWeEZdkw/orqPvYjDjOQoAAAAABiS2AeM6V4Z0cXXjaylN1F1S2/ydbT1b1uHJ1FO7clpmz2eKGwr6sngp4ihF7nVp36VrLYed2cUT5M7UZrjzew1N76LL4I+I2pVM3Yj9H0djupOY9gCWyZVhsxyqWzHKpbJlWGzHKsNmOVS2Y5VLZMqw2Y5Vy4Onrzium50dlWfaamJ8I4/wAfl4airdon9XYkj7BzGQAAAAAAAOjeUXJHUisRTjeVNNTS3uny9nzZt6W7uzuz4tXVWt6N6PB5s2dFzkNkH25C/vWH/Np+J53u5Pk9bPfh7BPe+zwR8PtT532h9DY7qGzm5ezDZMqlsxyqWyZVhsxyqWzHKsNmOVS2TKsNmOVS2TKsGKtrk9Bq82t+4+u2TpZs2d6rnV6eDm6m5vVYjlDanVawAAAAAAABNSCkmnuYHS880BpVm50Z8DJ7Wra1Nvq4jat6qqnhPFrXNLTVxjg0UvJziuKtR7ddfI9u2U9JeHZKurnyzQDE0q1KpKrRcac4zaTndpPi2GNeqpqpmMM6NNVTVE5dzrbJSXT8j4/anzvtDs2O642zmZe6WyZVhsxyrNOm5Oyt2uxtaXR16nO7MRjHP9XncuRRjLl+xT9nvNv3Nd+qPy8+009GPsM/Z7ye5bv1R+V7VT0Y+wT5Y95Pcl76o/J2qnoeb5+z3k9yXvqj8r2unpLHmyp7Peye4731R+V7XT0k811PZ72I2Fd8ao/J2yno58PlT3zfYje0ux7dqrernen8f28bmqqqjEcG0hBRSS3LYdlqqAAAAAAAAAAAAABpsU/65dZ85tX5/wBobun7rhbOXl7pbMcqw2Y5Vi5Yrqp5TgxEsOb5X3j21z6p/dd2OiXN8r7zH21z6p/c3I6MOo+V95PbXPqn92W5T0fRl03wkdr7zrbFuVVX5iZmfhn1hraqmIojHVvz6dzwAAAAAAAAAAAAAAAAA0mMf9cus+a2t8/7R/tu6fuOBs5WWwxcmVYbMcqlsxyqWyZVucHl8NSLlHWlJJu+5X4kj6zSbNs0WomunMz1c67fqmrhOIfBmeEVKS1fRlfZv1Wrfycfa2iosVRVRynwbWmuzXExPgjLf9yJnsOP+eqf+v8AuE1fcjzdhPqXOAAAAAAAAAAAAAAAAADVZnRs9ZbnvOPtbTTXTF2nw5+X9NnT14ndl8DZ83lvMNmOVS2TKpbMcqxcxVssHmijFRnFvVVk422pctz6LSbZoptxTdicx4w0rmlmas0vlx2LdWSdrJbIrxbObtDXTqq4xGIjk97Nn2cfq+vJqG1yfYdrY+km1bm5Vzq9P7amquRVO7Hg252WqAAAAAAAAAAAAAAAAAEzgpKzV0wNZiMtf4N3IcnVbJt3Z3qPhn8Nm3qJp4TxfDUw8474PuucW7szU2/8c+XH+21Tft1eLhZz66aqeFUYe8TE8kmChlRbqr4UxM+STMRzc1PCzlug+6xv2dlam5/jjz4f28atRbp8cvvw2Vcc+47mk2RaszvV/FP4alzU1VcI4Q2kIKKslZI6zWUAAAAAAAAAAAAAAAAAAAADDQEcDH1UJjIcBH1V3GHs6M5xC70nAx9VGaLSAyAAAAAAAAAAAAAAAAAAAAAAAAAAAAAAAAAAAAAAAAAAAAAAAAAAAAAAAAAAAAAAAAAAAAAAAAAAAAAAAAAAAAAAAAAAAAAAAAAAB//Z;" vertex="1" parent="ikngprKoodgcfhLvlv2f-54">
          <mxGeometry x="212.14285714285714" y="14.605263157894738" width="38.57142857142857" height="38.57142857142857" as="geometry" />
        </mxCell>
        <mxCell id="ikngprKoodgcfhLvlv2f-52" value="" style="shape=image;verticalLabelPosition=bottom;labelBackgroundColor=#ffffff;verticalAlign=top;aspect=fixed;imageAspect=0;image=data:image/jpeg,/9j/4AAQSkZJRgABAQAAAQABAAD/2wCEAAkGBxMQEhUSExMVFhMTFR4XFxYVFRcVGhUWFhUXFhUXFxcYKCggGBsoGxUYITEhJSorLi4uGB8zODMtOSktLisBCgoKDg0OGxAQGy8lICYtLS0tLS0tLS8wLS0tLS0tLS0rLS0tLS0tLS0tLS0tLS0tLS0tLS0tLS0tLS0tLS0tLf/AABEIAJMBVwMBEQACEQEDEQH/xAAbAAEAAwEBAQEAAAAAAAAAAAAABAUGBwMCAf/EAEcQAAEDAgAICQkFBwQDAQAAAAEAAgMEEQUGEiExQVPRExUWIlFhk6KyBzIzNHFzgpGxI0JSgaEUQ2JjcrPBVIOS0sLh8DX/xAAaAQEAAwEBAQAAAAAAAAAAAAAAAQIEBQMG/8QALREBAAICAgEEAQQABgMAAAAAAAECAxEEMSEFEhNBURQiM2EVMoGhwfAjQnH/2gAMAwEAAhEDEQA/AOn4NwfDwMX2Ufo2/u2/hHUvWIh4zKTxdDso+zbuU6hG5OLodlH2bdyag3JxdDso+zbuTUG5OLodlH2bdyag3JxdDso+zbuTUG5OLodlH2bdyag3JxdDso+zbuTUG5OLodlH2bdyag3JxdDso+zbuTUG5OLodlH2bdyag3JxdDso+zbuTUG5OLodlH2bdyag3JxdDso+zbuTUG5OLodlH2bdyag3JxdDso+zbuTUG5OLodlH2bdyag3JxdDso+zbuTUG5OLodlH2bdyag3JxdDso+zbuTUG5OLodlH2bdyag3JxdDso+zbuTUG5OLodlH2bdyag3JxdDso+zbuTUG5OLodlH2bdyag3JxdDso+zbuTUG5OLodlH2bdyag3JxdDso+zbuTUG5OLodlH2bdyag3JxdDso+zbuTUG5OLodlH2bdyag3JxdDso+zbuTUG5OLodlH2bdyag3JxdDso+zbuTUG5OLodlH2bdyag3JxdDso+zbuTUG5OLodlH2bdyag3JxdDso+zbuTUG5OLodlH2bdyag3JxdDso+zbuTUG5OLodlH2bdyag3JxdDso+zbuTUG5VmMdBEKaT7KP7v7tv429SrMeE1nys8Gehi92zwBTCJSVKBAQEBAQEBAQEBAQEBAQEBAQEBBGqa+KI2kkYwkXAe9rSR05/Ypisz1Ctr1juXlxzTf6iHtWb1b2W/Cvy0/KVBO2QZTHNc06C0hwNsxzhUmJjteJiY3D0RIgICAgICAgICAgICAgICAgIKzGX1aT4fG1RPS1e0rBnoYvds8ASESkqUCAgICAgICAgICAgICAgICAgICDm3lKaDVR3ANqcnP/W5dT07qzjeqf5qssI238xum2j+G66mo/Dke60R26b5OvUIv6n/3XL5/l/yy+l4X8MNKs7WICAgICAgICAgICAgICAgICCsxl9Wk+HxtUT0tXtKwZ6GL3bPAEhEpKlAgICAgICAgICAgICAgICAoGBwxjnUxVEsTGQZMb8kF4fc5gdRsulg4UZKRbbk8j1C2K810hSY+1gBORT2GfMJP+y9Z9OrH28o9UtM60+hj1WfgpvlJ/wBlMenV/KJ9VtH0osN4Xmq5mvkEQLYi0ZOVk5OUTnuTnzr3wcf4fEMvI5PzxuUT7T+X+um31stX7mX9v9umeTr1CL+p/wDdcvn+X/LL6Xhfww0qztb5lkDQXOIAAuSdAA0kprfgmdRtEwVhWGqZwkLw9ug6iD0OBzg+1WtS1J1KmPJW8brKaqriAgICAgICAgICAgICAgrMZfVpPh8bVE9LV7SsGehi92zwBIRKSpQICAgICAgICAgICAgICCPWVscIBkkYwE2Be4NuegXUxWbdK2vFe5ReP6X/AFMPas3q3xX/AAr81Py5bhyoY+rqHNe0tM2UCHAgjJGcHWu5xPGOIl87zZ3lmYVs7hkHnA822Y/xXXvbUQ8K7menqHtzHKbpB0jU2ymJj8qzE/h43GUBlD0ZF75r3UbjafOv9XtltvfKb5wOkfhsreFfM/Tf4h4Xp4qKNj5omOBfdrntaReRxGYnoXC5NLTknUPouHkrXFETLRR4cpnENbUQlzjYASNJJOYAC6zzjtH01RlpPUqPykVhZTsiabGeQNP9DRlO/wAD81o4WP3ZfLL6hk9mLx9sPg+ufRyCeLVmezVIzWD19B1Lr8rjVyU8OHxOVbHfy6/S1DZWNkYbte0OaekOFx9V87ManT6itomNw9UWEBAQEBAQEBAQEBAQEFZjL6tJ8PjaonpavaVgz0MXu2eAJCJSVKBAQEBAQEBAQEBAQEBAQYryntuynB2x8BW70+P/ACOb6n4xsFZtvMbo6B+Ky7Xj8OF5/L5ijblO5o88DRoFtSrERvpMzOo8/T5naMg81o5t8w/ispnWuiu99vVrG5hkt0gaBrbdIiFZme9vKwygclvoybWzXuo1G1tzrW/t7Bjb2yW+dbQPw3VtR+Fdzrt4QAZF8lp5rjnHQcyrWI10tbfu7TsGtAqYLNAtUxjMLa2n/K8uTEfHb/v09uJM/LXy2vlNhPBwS/dZKWnqy25j82/quZ6feIyOt6nWbYtsW/QfYu9PmHzUeJftPhGpja1jamVrWCzWtdYADVYLJPDxz5mG6OdkiNRK4wHjTWNmjjL+HEjw3JeAHZ9JDxnzDPnusnJ4eOtdx4beJzst7RWfLp65LuCAgICAgICAgICAgIKzGX1aT4fG1RPS1e0rBnoYvds8ASESkqUCAgICAgICAgICAgICCtxjr3U1NLM22Uxt23zi5IAuOjOr4q+68Veea80pNocywxhuprWsEnAgRuyhktcM9rZ7krt4eHGOfdWXz2fnfLHtsrsiT+X8iterMe6f2+WxSAk8zOb69KiK2hM3pP5JIZHAjmWObMCk1tPgi9Infl+hkv8AL+R1ZlOrf0j3U/t88DJe/M0WtY2t7FX2W3tPvprXl95Mv8v5FW1ZG6f2+I4JGi3MI6wdelRFbRCZvSZ+3pFwrXseODyo3h4zGxc03F+kZlXJjtePbK2PLXHb3QtMKYaqqpuRNKBGdLI2BoNjcXJuf1Xhi4NKTtoy+o3yRpWyutZoBJJDQBnJJzADpK13tFK+WKlJyW1CbDgKskNm0sg632jA9pcsludjj7bK+nZreJht8UsU/wBlPDTOD5yLC3mxg6Q2+knp/wDd+VyeVOXxHTs8Thxh8z21KytwgICAgICAgICAgICCsxl9Wk+HxtUT0tXtKwZ6GL3bPAEhEpKlAgICAgICAgICAgICAgqMbocuiqGjTwTj/wARlf4XphnWSJePIjeOXKqV12j2D6L6ek+HyF41aXsrKiD8QLoP1AQEBB8udZBeYg4K4eoM7h9nT+b/ABSkf+Iz+0hcj1DP49kO36Zx/Pvl0xch3BSCAgICAgICAgICAgICCsxl9Wk+HxtUT0tXtKwZ6GL3bPAEhEpKlAgICAgICAgICAgICAg+XsDgWnOCLEdIOlI8ImNxpxeSlNPLJA7TE8t9rdLD+YIK+k4uT30iXyfLxTjyTD0WllEFjgFzRKb5AdwbuCMlsgS2+zL75rX6epY+dGScP7P+w3enzjjPHyf9lIw9JeODhBH+0gESmNzXAgWyC4s5occ+YaFn9NjJEW929fW2n1acXur7Nb+9KVdRyH6gIPlzrIP2io5KqUQRec7znao263FZeRnjHVs4vGnLZ1vBODmU0TYYxzWD8ydbj1k5189e83t7pfUY8cUr7YTFVcQEBAQEBAQEBAQEBAQEFZjL6tJ8PjaonpavaVgz0MXu2eAJCJSVKBAQEBAQEBAQEBAQEBAQYzygYAdIBVQtvJG2z2j78Yz3HSR9PYtvD5HxzqenO5/F+Svujtk8GYJq6hgkigD2O0OEsdvYbm4PUV0rc+lJ1Ll09NyZI3VeUOIVZJ6V8cLddvtH/Ic39VkyeqR/6w2YvRrb/fL6xnxT/Y2NfGXvjAs8uzuDvxG2o/ovXhc75J9l+/p4eo+n/DHvp19syuo5D9QEHw59lEyRD1wVg6asfkQNzA86V3mM/PWeoLJn5dccf23cfhXyz/TqGL+AoqKPIZncc73nznnpPQOgalwsuW2Wd2fR4cNcVdQtF5vYQEBAQEBAQEBAQEBAQEBBWYy+rSfD42qJ6Wr2lYM9DF7tngCQiUlSgQEBAQEBAQEBAQEBAQEBBnazF98UhnopBDI7O+NwvDKf4mjzT1he0ZImPbfzH+8PCcVqz7sc6n/aX7HjZJBmq6WWK334xw0Z67tzj2Kk8eLf5JWjlTX+SuktmOdDILGoiscxD7t/IhwVf0+Ws9PT9ThtGtsbh6korl9NVwD+W6TN8JGj2H5rrcfl5Y/bkrM/24XK4OGZ92G0f/GYbVBxs27j0MBd8rLoTnpEdubHGyTPSyo8AVk/mU7mg/el+zHyOf5BZr87HVqx+nZbfTTYK8n7RZ1VIZDs2Xaz8z5zv0XPy869vEeHUwem0p5t5bOmp2RtDGNDWtzBrRYD8gsUzMzuXRrWKxqIeihIgICAgICAgICAgICAgICAgrMZfVpPh8bVE9LV7SsGehi92zwBIRKSpQICAgICAgICAgICAgICAgICgeE1FG/zo2O/qY0/VWi0x9qzSJ+nm3BcA0QxD/bbuUzefyj46/hJYwN0AD2C30VdzK3th9IkQEBAQEBAQEBAQEBAQEBAQEBAQVmMvq0nw+Nqielq9pWDPQxe7Z4AkIlJUoEBAQEBAQEBAQEBAQFAxODcZJ34VkpnOHAgvaG5I5uQ0kOytJJtrOta74axhi/2w0z3nPNPptllbhAQEBACDFYl4xT1VVURSuBY0FzAGgZGS/JABGcix130LVnw1pSJhh4+e17zWW1WVuEBAUAgKQQEBAQEBAQEBAQEBAQVmMvq0nw+Nqielq9pWDPQxe7Z4AkIlJUoEBAQEBAQEBAQEBBncYMcqejdwZvJINLGW5v9TjmB6tK98XHvk8s2XlUxzrtT0vlLhc60kMjB+IEPt7RmPyuvW3CvrxLxrz6zPmFPi7O2TDLnsN2PfK5pGsFjrFeuWs148RLww2i3JmYb7DuH4KJodK7O7zWNzud7B0dZzLFjxWyTqro5c9cfmWWHlNiyvV5Mnpy23+Wj9Vp/RW12yf4hXfTV4Ew3DWMy4XXt5zTmc09Y/wA6FlyY7Y51Zrx5q5I3VJr66OnYZJXBrG6Sf0AGs9SrWs2nUL3vFI3ZjajymQh1mQSOb0uc1t/YM61xwra8yxT6hXfiF5i7jbT1pyG3ZJpyH2BIGnJIzO+vUvHJgtj8z098XJpk8R2yfk39eqf6Hf3WrTyv46sfD/ls6DhHCMVOwySvDGjWdZ6ANJPUFirSbzqro3yVpG7SpsW8bo66V8TI3tyG5Qc63ObcNzgeabkZvavXLx5xxEy8cPJjJMxEJOMGNEFFmkJdIRcRszut0nU0e1VxYbZOlsvIpj8SzsXlNiLrOp5A3pDmuPyzfVe88K2u2aPUK76bDBWE4qpgkheHNOboIPQ4aQVlvS1J1ZtpkreNwz4x+pxLNHI1zBESA7zsstdkkBo0G+jqGpe/6W+omPtm/WUi0xP0rpPKbFlWFPIW9Je0H5Z/qvSOFb8vOfUK78Q1uAsLx1kQmjuASQQ4WIcNINs2saFlyUmk6lsxZYyV90LBUeggICAgICAgICAgrMZfVpPh8bVE9LV7SsGehi92zwBIRKSpQICAgICAgICAgIKvGjCJpqWWZvnNbZvU5xDWn5uBXpip7rxV457+zHNmK8n2LUdQ11VUDhLvIa12cEjO57vxG5tn6CtfJzTWfZVh4mCLx77NhhXFilqGFhiY025r2NDXNOogjT7DmWWma9Z3tuycfHeNac8xJpTDhMRO0xmRpI/hY4EjqzLdyLe7Dv8AOnM40ezNqfp6YEpDheukklJ4JvOIvbmXtHGOgW0+w9KjJb4McRXtbHX9RlmbdOjOxfpSzg/2eLJta2QPrpv1rB8t9726fw45jWnOauA4Iwkzg3Hgn5JsTpie4tc09NiDY9TVvifmxTvtzJj4M0a6S8dpH1uEGUTXWawtb1Bzmh7321kNP6darx4jHim6/JtOTNGOOm3wfi3SwMDGwsObO57Q9zuskrHbNe0723UwY6xrSNSYn0sVS2pja5rm6GA8wEggkDSMxOa9upWnPea+2Va8Wlbe6HN8DYeNDPUSNYHudlMbc2APCXudZGbQt98PyUrDmUzfFe0peBcHTYYmc+acWZ5w+8AdUbNDR1/VVyXrx66rC2KluRbdpdHp6GDB9O8xMAaxhe7W5+S0m7naScywTa2S0bdOKVw0mauWYCnppqh89fITc5WTkvOW49OSDZoAGb2dC6WSt4pFccOTitS15tllr6rDOBpGcG5rMm2bJge0jra5rbgrJGPPE7/5bLZuNaNf8M5idXimwgI4pC+CV3B3ILcoEfZktOhwcbf8ulaM9Jti3aPMM3GvFcuq9SjYPwR+2YRkhJIbw0jnkaclshvbrJIH5q98k48USrTF8maYdShxfpWM4MU8WTbQWNdf2k5yVzJy3md7daMGOI1pMo6OOFgjjY1jBoa0WGfOVWbTM7letYrGoe6hYQEBAQEBAQEBAQVmMvq0nw+Nqielq9pWDPQxe7Z4AkIlJUoEBAQEBAQEBAQEFTjVg81NJNE3znNu0dLmkPaPzLbfmvXDeK3iZePIp78c1Y/yc4xxwsNLM4RkPJY53NFz5zHE6Dfp6Vp5WGbT76sfDzxWPZbw2WFcYKemYXvlbozNa4Oc49DQProWWuK1p1ENt81KRuZYbyfQPqq2WscLNGWT0ZcuhoOuzSf06Vs5UxTHFIc/iVnJkm8omLtZxTXSRTAiN3MJtobe8cnWLfXqVstfmxxNe1cVv0+WYt06W7C9OGcJw8WRa+Vlttb5rn/HbetOp8tNb25phKp42wlGIgeDbktBt+7Y4ue89F7m3w9K6FY+HFO+3Ltb580a6Ssc2vosJMrA27Xlrx1lrQx7L6jkj9VXBMZMU0W5ETizReG9wfh2nnYHslZbWC4NLepzTnBWK2K1Z1MOhTNS8biUalxqpZKgUzJMp50EC7CQCSA7QTYHq61acN4r7phWORjm3sifLC4h0Ec1dPwjGvDA5zQ4XAdwgF7aDmOtbOTea466YONStsttw+sZsCy4LnbV0xIiys2sMJ0xvGth1fLSAUw5IzV9l+zPitgt76dNrgzCceE6R4ackvY6N7dJjc5pH5jPcHX8wMd6Tiu3UyRnxuZ4v0tMyd8Fe1zbHJDspzQx4OcOt909Ps1FdHLa81i2Ny8NMcWmuVsqrFjBMTOEe8Blr3E5N/YAbuPUFkrmzzOoj/Zttg49Y3t64p4FwdKRU0zXkxPsMtz+a8AEHJOY5iCFGbJlj9tlsGLDafdRS4j/AP6tR/vf3gvbkfw1/wBGfi/zz/q6Yue6ogICAgICAgICAgICCsxl9Wk+HxtUT0tXtKwZ6GL3bPAEhEpKlAgICAgICAgICAgKBmMYcSYKtxkBMUh0uaAQ49LmnX1iy04+Teka7hly8SmSd9SpqPyZMDryTuc3oYwMJ/Mk/RetubOvEPCvAjfmW4oKGOnjEUTQ1jdAH6knWesrHa02nct9KRSNVQMYMXIK1oEgIe3zZG5nN6usdRV8ea2OfDzy4K5O2THkwGV6ycn3QyvnlW/Rav1s66Y/8P8AP+ZrsAYAhomlsTTd3nPdnc62i56OoZllyZbZJ/c24sNcUftS8J4OiqYzFK0OYfmDqIOo9arS81ncLXpF41LEVPkxYXXZUEN6HxhxH5gi/wAlsrzZ15hhn0+N+JX2LmJ0FE7hATJKBme6wybixyWjR7c5Xhl5Fsnj6aMPFrj8x2Yu4qto55phIXcLcBpbbJBdlG51m9uhMueb1iNdGLjxjtNt9r+pgbI1zHtDmOFnNOgg6l4RMxO4aLVi0alnsWcUW0M0krZXOa9uS1hFskZQdzj94i1gbDSV75c85IiJhnwcaMVpmJe2MeKcFbznXZKBbhGWuQNAcDmcP/rqMWe2PxHSc3Gpl8z2zkPkwaHc6oJb0NjAPzJP0WiebOvEM0cCPuW0wPgmKkj4KFtm3uSc5c7W5x1nMPksl72vO5bceKuONVVWBcVG01VLUiQu4TKs3Jtk5bg91zrzjNmCvkzzekV/Dyx8aKZJvto14tIgICAgICAgICAgICCsxl9Wk+HxtUT0tXtKwZ6GL3bPAEhE9pKlAgICAgICAgICAgICAgICAgICAgICAgICAgICAgICAgICAgICAgICAgrMZPVpPh8bVErV7ZHB+MFRwUf2n3G/cZ+EdSrtbT35Q1O07jNynZqDlDU7TuM3Iag5Q1O07jNyGoOUNTtO4zchqDlDU7TuM3Iag5Q1O07jNyGoOUNTtO4zchqDlDU7TuM3Iag5Q1O07jNyGoOUNTtO4zchqDlDU7TuM3Iag5Q1O07jNyGoOUNTtO4zchqDlDU7TuM3Iag5Q1O07jNyGoOUNTtO4zchqDlDU7TuM3Iag5Q1O07jNyGoOUNTtO4zchqDlDU7TuM3Iag5Q1O07jNyGoOUNTtO4zchqDlDU7TuM3Iag5Q1O07jNyGoOUNTtO4zchqDlDU7TuM3Iag5Q1O07jNyGoOUNTtO4zchqDlDU7TuM3Iag5Q1O07jNyGoOUNTtO4zchqDlDU7TuM3Iag5Q1O07jNyGoOUNTtO4zchqDlDU7TuM3Iag5Q1O07jNyGoOUNTtO4zchqDlDU7TuM3Iag5Q1O07jNyGoOUNTtO4zchqDlDU7TuM3IahBw7h+oMDwZOj7jPxt6lEpiPL//Z;" vertex="1" parent="ikngprKoodgcfhLvlv2f-54">
          <mxGeometry x="19.285714285714285" y="24.342105263157894" width="67.5" height="28.92857142857143" as="geometry" />
        </mxCell>
        <mxCell id="ikngprKoodgcfhLvlv2f-53" value="" style="shape=image;verticalLabelPosition=bottom;labelBackgroundColor=#ffffff;verticalAlign=top;aspect=fixed;imageAspect=0;image=data:image/png,iVBORw0KGgoAAAANSUhEUgAAAXYAAACHCAMAAAA1OYJfAAAAZlBMVEX///8AlogFmIoAkIEAkoMAjn8AkoQAmozR5uOq1M/v+fjl8/HC4NyGxb9is6nO6OWOycIfnpFPraPs+Pdvu7LK5eLb7uyXzce129d/wbn4/fzX7Oql0849ppp5vbVBqJ1YsqhqtaysrqKaAAAJxUlEQVR4nO2c65arqhJGVdB0EnMxbdR4SdLv/5JHKVCBQh3ZnbRjnfr2j73SouIEq4oC9DwSiUQikUgkEolEIpFIJBKJRCKRSCQSiUQikUgkEolEIpFIJBKJRCKRSCQSiUQikUgkEon0jyqrb5eEM8Y3j3td/XVt/j9U3Tac+74ftGr/x/kmPf11nf55FQ8OxAe16JvtX9frHSpb/XUdhE4NN5hL8jyJZ0/e3w4u3bIPVF6pEHe8Oo9XxTk9Xppk077L/ia5/Jzjb6TYYeYyv6YyZWZHH/7FnruZ079C7lI432hL6pfF+XO+GIu6WyaOo7swZJxH/qCIszDJ92ZBX1T8/a95lXCzkz9GzeBvZlr+i/kusV/A/p34nEXhbLmaT95yF6E15PxovJHiZeBvx17Y9sWPxw0xV4c3Y98LnPPYE3nPB37Ygb0lzA5awc9g35oGJgh4Xun9n+VTV5jA/htGZh8twl6oWoR45Kuwt5YoijpzNOoczdjDfgT7ltl+1C9PhtmZ5C6xJ4jm7NMSLcSuOrsfPdHjEvvjmKb3++2eHpsgVC9AlIy4fwL7FYlgeO6Z2ANeuK8B2PleBGaGfqGKy7Bfh1eOWV6yE2Bno35QZnkiz+LP4c8fwL4zY3XhQksbe0fVpR77e7QM+2UwGvyGFZDYDau3laeFQ7f6APYHEq23nd3GHviuwGwd2DNRh0RGM1jIi2Pv4iQwkf1f3o+9tuh2nd3DsAf87LrKGrDfu0K89gR2jnkiB3ZvL7t7b33ejn0XYJ299lDsge/iuhj7AmOPlFiCvWSyl59F4Q1SxIXdyyPdMr0d+yFC4AbdERR76rjMAuzlaZs+22H5ph2T3wuc/W6bXtoSSfNM6+uoCGBnu++RzHNzLslBkI8NF5zYd9Bkjfr9buw7hG0A98OwBy6ws9i/mm5crnxeOyT/sVM11bMtIwvwtkjT8wHsfjgSNxsu6SOYo7A2F+RpXdi9Boy7uua7sedYlwbXgmM/4NeZxR6Hvi5ujQMOzBhEDqHF3h5eBgb2uKsBxOsnUZnQblc39p9I88Pvxp5glh1uh2IH+2NrFntmYm+56E14tAa6UQ9uAXYRPUqiouNHd6sSbuwpvGXKcr0Ze2aPT/swEcUecHzMOW/bO+wRZ52UqdFSfDc1amGtBYEyQxPPY8/EReUZOdzB8h8T2KNPYsdsjBqM4th9dByyAHsQ+pdbHV+v1+LQDwwHvwiGwWfJ+Zpl2Sk+XFg4WGcbe2RAhehR2i3wkKw26+DG/tCb8s3Yn8gAVbnzU//So4d1zWPX5mULyW4wM0fRQaNR/mG3HR5bRjKeM+dQwumqGYVTtavqxg7N+qFIptwg2Rj15KeNSmbp3NEZD4kdm6lBBUHeyIxA73dlfWbjdjHAj47qJ2Rn2JdRyokdUpe8D4/fi/0bST3aCYBUw87RnKrEXpwsOW69BTDKaWqm2dYs9sbgGegYpZzYITvA+lZ/L/YrMv636mTk3fEeKRO/4DLH4q57iydj6skqyKe4Cs9hP4XG6eBUmeFUXdiP0sn3xd+LvbCzXbbpNuw/txxVJ/c0h+vedzGoVMYdsNuxh9Qc9lS7mKeMmFlXHPu3zFyOzn8v9q2F3Y4PM6PMb2EXiUKuYmvg+qptL8WdtPERoDQ6EYa9uvkqTBoa/cPYkUlIM9hBU3svYIdR5Y/6CYUjRyg0gx0chcYYnKQxuQfYo7rq9PUV1+efYXopHLmhD2Nnlge0BlSTvZ2Fppjr3iLYGGKPGzw9r1E7M4O9sS1KiTlVOakX9Y5ntHhDc2qfte2+nT46miHmFPao2lkalyr3RX24p7e6yEzs3/LpWZIjEeo09gr8p37eXc+yCDlXDrS31d6Lz0Yy3O7stvWfiGSm4/brz0ZkIXm3JsiHvEmP3StU0obzoz0PMYn9JtyE0WUqcT2moXNh5/ysv2Qfjdv9o1XC6uzTcfvEKDVOQm497wh7y10dj1hgdPlp7OAoze4Asbhm8BHsXYL5YVm2j45S+/UWGxVgVHZgPzlKdWO/2xlIA7uXNYNf5tF9/OZMYhfO2R5q1RAcjcMb3ba3r96meZ5j5IE+m5PpH1p5Iruzv5iT+VFEIQmpJjwi/f0qmj472XbDkROZxP4UB4PnRRdkt7QJAi2SyfbfO9c44Q8ykMEwd2db9hczkDlQj8LkUBfXuI3cIK6OTLN2SgfwYR9dTmLfqXSmIXWZcVFnKszQH+TbR9iRBOVL+XZJhj1Hb/yJYdhbw9evF/JZz30Ke267jLHGkNeCHZ1d6rEjjYJOyHtz2IGMPiF4dWBvVSjw/fLJKezNJHXtFqvBjlsZid227C/OpV6QCG8Ce79guj9lYsWvzOZgK+vlCGxwmavBjq4ckNgRy/7iygHINuoR3iR2bw/uPZTIJHbMA4qg3U/OiGCmbuSaV4MdXScjsSOd/cV1MpAf0Q9OY5dzW4oQjGHR9aSQBECXq0GGbBR7rQf7DplgArpYZ39xVdgL2OWyF/mGQIbFzhipoJ3h+6NgGcZwcD3Y8TWQHXYsjHlxDaQVUnjz2J98/ORIsgsEs6aO+RFok8EfrQi7d8FtCRbG4EOlTtPYAZq+bmUOe6P5gyc+J+2VYvCLJ6NbgWfuo681YUfWt3fYkQHqy+vbwe1p43QTuzlCr/R8OYQ2Vt5F/t2VpocprGEfwZqwI7s5WuyIZV+0mwOVWvsRm38bsDeX7ThOOSV6P93LK/RViB/C0EMGAFnuKB9NXxGwKuzIJFOKdPYFe5ecr0MjNy4mt+JUZdXpFG+FUe6xl1HE+OUcX7uj8fkhg/FhlHBRV7jndX44bphYfLRHsruaNnCWbNF1Ybd26vn3vdXZl+zUc2LP+kyYyPx1yTDISinswqZwtfAAyaf0ayh51P0nV5mewXq5Nysf+LhdVobdi3U7499So7Mv25fqNv791kVdPfYaSaxE/tgZ5GbmuMv0mnMllqC91Wh3bdiNXdh+Y1qdZbuwpxZa+1jGqif2YzcLe+hXOxhFwkwt/prCCBkbOdBaHXavTMPxZncd+pJvDoiJg4nZpTIPwmFbAW9tOQvDjRoIZIdNOErWch4mlgO/JqGacu72HNSld+zuGk7urcmhYnCfb/gxjz0SF0ZnjX9b/+kLGztYeTe9LanKYYtM8jimt7y46o20FxtoOuuRXNIt2oCn87HbhdNtwhH9AG46+QWPEsrIQBR+zPUhVW7xis7/pjV8T2Y133n5pKpbYnw96U5fT/qIsu3tkvj0rTASiUQikUgkEolEIpFIJBKJRCKRSCQSiUQikUgkEolEIpFIJBKJRCKRSCQSiUQikUgkEon0r+h/ME+DMh4xOlUAAAAASUVORK5CYII=;" vertex="1" parent="ikngprKoodgcfhLvlv2f-54">
          <mxGeometry x="103.07249999999999" y="24.342105263157894" width="80.14178571428572" height="28.92857142857143" as="geometry" />
        </mxCell>
        <mxCell id="ikngprKoodgcfhLvlv2f-57" value="" style="group" vertex="1" connectable="0" parent="1">
          <mxGeometry x="-434.75" y="110" width="270" height="200" as="geometry" />
        </mxCell>
        <mxCell id="ikngprKoodgcfhLvlv2f-58" value="" style="group" vertex="1" connectable="0" parent="ikngprKoodgcfhLvlv2f-57">
          <mxGeometry x="-140" y="50" width="270" height="150" as="geometry" />
        </mxCell>
        <mxCell id="ikngprKoodgcfhLvlv2f-55" value="" style="rounded=1;whiteSpace=wrap;html=1;gradientColor=#d5739d;fillColor=#e6d0de;strokeColor=#996185;" vertex="1" parent="ikngprKoodgcfhLvlv2f-58">
          <mxGeometry width="270" height="150" as="geometry" />
        </mxCell>
        <mxCell id="ikngprKoodgcfhLvlv2f-56" value="&lt;font style=&quot;font-size: 18px&quot;&gt;Stocks-websites&lt;/font&gt;" style="text;html=1;strokeColor=none;fillColor=none;align=center;verticalAlign=middle;whiteSpace=wrap;rounded=0;" vertex="1" parent="ikngprKoodgcfhLvlv2f-58">
          <mxGeometry x="95" y="55" width="90" height="50" as="geometry" />
        </mxCell>
        <mxCell id="ikngprKoodgcfhLvlv2f-63" value="" style="shape=flexArrow;endArrow=classic;startArrow=classic;html=1;entryX=0.533;entryY=1.011;entryDx=0;entryDy=0;entryPerimeter=0;" edge="1" parent="1" target="ikngprKoodgcfhLvlv2f-35">
          <mxGeometry width="50" height="50" relative="1" as="geometry">
            <mxPoint x="-390" y="600" as="sourcePoint" />
            <mxPoint x="-300" y="545" as="targetPoint" />
            <Array as="points">
              <mxPoint x="-310" y="580" />
            </Array>
          </mxGeometry>
        </mxCell>
        <mxCell id="ikngprKoodgcfhLvlv2f-64" value="" style="shape=flexArrow;endArrow=classic;startArrow=classic;html=1;exitX=0.446;exitY=0.013;exitDx=0;exitDy=0;exitPerimeter=0;entryX=0.57;entryY=1.021;entryDx=0;entryDy=0;entryPerimeter=0;" edge="1" parent="1" source="ikngprKoodgcfhLvlv2f-1" target="ikngprKoodgcfhLvlv2f-20">
          <mxGeometry width="50" height="50" relative="1" as="geometry">
            <mxPoint x="-510" y="600" as="sourcePoint" />
            <mxPoint x="-530" y="555" as="targetPoint" />
            <Array as="points">
              <mxPoint x="-520" y="590" />
            </Array>
          </mxGeometry>
        </mxCell>
        <mxCell id="ikngprKoodgcfhLvlv2f-65" value="" style="shape=flexArrow;endArrow=classic;startArrow=classic;html=1;exitX=0.5;exitY=0;exitDx=0;exitDy=0;" edge="1" parent="1" source="ikngprKoodgcfhLvlv2f-6">
          <mxGeometry width="50" height="50" relative="1" as="geometry">
            <mxPoint x="-475" y="800" as="sourcePoint" />
            <mxPoint x="-425" y="750" as="targetPoint" />
          </mxGeometry>
        </mxCell>
        <mxCell id="ikngprKoodgcfhLvlv2f-66" value="" style="shape=flexArrow;endArrow=classic;html=1;" edge="1" parent="1" source="ikngprKoodgcfhLvlv2f-35">
          <mxGeometry width="50" height="50" relative="1" as="geometry">
            <mxPoint x="-475" y="360" as="sourcePoint" />
            <mxPoint x="-425" y="310" as="targetPoint" />
          </mxGeometry>
        </mxCell>
        <mxCell id="ikngprKoodgcfhLvlv2f-76" value="" style="shape=image;verticalLabelPosition=bottom;labelBackgroundColor=#ffffff;verticalAlign=top;aspect=fixed;imageAspect=0;image=https://i.morioh.com/2019/12/19/b2d58b5bee3c.jpg;" vertex="1" parent="1">
          <mxGeometry x="-250" y="80" width="142.39" height="110" as="geometry" />
        </mxCell>
        <mxCell id="ikngprKoodgcfhLvlv2f-69" value="" style="shape=image;verticalLabelPosition=bottom;labelBackgroundColor=#ffffff;verticalAlign=top;aspect=fixed;imageAspect=0;image=https://www.freecodecamp.org/news/content/images/2020/10/gcp.png;" vertex="1" parent="1">
          <mxGeometry x="-840" y="50" width="319.46" height="180" as="geometry" />
        </mxCell>
      </root>
    </mxGraphModel>
  </diagram>
</mxfile>
